<svg width="30" height="30" viewBox="0 0 30 30" fill="none" xmlns="http://www.w3.org/2000/svg">
<path d="M22.0837 12.9513C17.7188 12.9513 14.1677 16.5024 14.1677 20.8671C14.1677 25.2322 17.7188 28.7833 22.0837 28.7833C26.4488 28.7833 29.9999 25.2322 29.9999 20.8671C29.9999 16.5021 26.4488 12.9513 22.0837 12.9513ZM10.2012 8.12418L12.0553 7.34781C12.1672 7.3009 12.2874 7.27674 12.4087 7.27674C12.5301 7.27674 12.6502 7.3009 12.7621 7.34781L14.616 8.12418V1H10.2012V8.12418Z" fill="#FF1010"/>
<path d="M22.0839 11.1211C23.0326 11.1211 23.9497 11.258 24.8174 11.5121V3.24807C24.8174 2.00846 23.809 1 22.5694 1H16.4461V9.49932C16.4461 9.61948 16.4224 9.73847 16.3765 9.84949C16.3305 9.96051 16.2631 10.0614 16.1781 10.1463C16.0931 10.2313 15.9922 10.2987 15.8812 10.3446C15.7701 10.3906 15.6511 10.4142 15.531 10.4141C15.4097 10.4142 15.2896 10.39 15.1777 10.3432L12.4086 9.18391L9.63961 10.3432C9.50056 10.4015 9.34926 10.4245 9.19917 10.4102C9.04908 10.3959 8.90485 10.3447 8.77932 10.2611C8.6538 10.1776 8.55087 10.0644 8.47969 9.93145C8.40851 9.79854 8.37129 9.65009 8.37135 9.49932V1H2.24807C1.00846 1 0 2.0084 0 3.24807V23.5694C0 24.809 1.0084 25.8174 2.24807 25.8174H13.6917C12.8323 24.3656 12.3379 22.6733 12.3379 20.8674C12.3379 15.4932 16.71 11.1211 22.0839 11.1211Z" fill="#FF1010"/>
<path d="M24.125 18.0264C24.3596 17.7918 24.7391 17.7918 24.9736 18.0264C25.2082 18.261 25.2082 18.6404 24.9736 18.875L22.8486 21L24.9736 23.125C25.2082 23.3596 25.2082 23.7391 24.9736 23.9736C24.739 24.2082 24.3596 24.2082 24.125 23.9736L22 21.8486L19.875 23.9736C19.6404 24.2082 19.261 24.2082 19.0264 23.9736C18.7918 23.7391 18.7918 23.3595 19.0264 23.125L21.1504 21L19.0264 18.875C18.7918 18.6404 18.7918 18.2609 19.0264 18.0264C19.261 17.7918 19.6404 17.7918 19.875 18.0264L22 20.1504L24.125 18.0264Z" fill="white" stroke="white" stroke-width="0.3"/>
</svg>
