<svg width="64" height="64" viewBox="0 0 64 64" fill="none" xmlns="http://www.w3.org/2000/svg">
<g clip-path="url(#clip0_218_427)">
<path d="M28 60C31.3137 60 34 57.3137 34 54C34 50.6863 31.3137 48 28 48C24.6863 48 22 50.6863 22 54C22 57.3137 24.6863 60 28 60Z" fill="white"/>
<path d="M48 60C51.3137 60 54 57.3137 54 54C54 50.6863 51.3137 48 48 48C44.6863 48 42 50.6863 42 54C42 57.3137 44.6863 60 48 60Z" fill="white"/>
<path d="M64 18.64L56 42.64C55.8608 43.054 55.59 43.411 55.2289 43.6566C54.8677 43.9022 54.4361 44.0228 54 44H22C21.5914 44.0013 21.1921 43.8775 20.856 43.645C20.5199 43.4126 20.263 43.0828 20.12 42.7L8.62 12H2C1.46957 12 0.960859 11.7893 0.585786 11.4142C0.210714 11.0392 0 10.5304 0 10C0 9.46958 0.210714 8.96087 0.585786 8.5858C0.960859 8.21072 1.46957 8.00001 2 8.00001H10C10.4086 7.99868 10.8079 8.12257 11.144 8.35499C11.4801 8.58741 11.737 8.91721 11.88 9.30001L14.38 16H22C22 20.2435 23.6857 24.3131 26.6863 27.3137C29.6869 30.3143 33.7565 32 38 32C42.2435 32 46.3131 30.3143 49.3137 27.3137C52.3143 24.3131 54 20.2435 54 16H62C62.3173 16.0015 62.6297 16.0784 62.9114 16.2245C63.1931 16.3705 63.436 16.5815 63.62 16.84C63.8228 17.0877 63.9631 17.3805 64.0292 17.6937C64.0954 18.0069 64.0853 18.3315 64 18.64Z" fill="white"/>
<path d="M38 4C35.6266 4 33.3066 4.70379 31.3332 6.02236C29.3598 7.34094 27.8217 9.21508 26.9135 11.4078C26.0052 13.6005 25.7676 16.0133 26.2306 18.3411C26.6936 20.6689 27.8365 22.807 29.5147 24.4853C31.193 26.1635 33.3311 27.3064 35.6589 27.7694C37.9867 28.2324 40.3995 27.9948 42.5922 27.0865C44.7849 26.1783 46.6591 24.6402 47.9776 22.6668C49.2962 20.6935 50 18.3734 50 16C50 12.8174 48.7357 9.76515 46.4853 7.51472C44.2348 5.26428 41.1826 4 38 4Z" fill="white"/>
<path d="M36.6615 19.3978L42.4969 13.5624C42.9377 13.1217 42.9377 12.4072 42.497 11.9664C42.0562 11.5263 41.3416 11.5263 40.9016 11.9664L35.8636 17.0044L33.926 15.0675C33.486 14.6268 32.7714 14.6268 32.3306 15.0675C31.8898 15.5083 31.8898 16.2222 32.3306 16.6629L35.0655 19.3978C35.1701 19.5028 35.2945 19.5861 35.4315 19.6429C35.5684 19.6997 35.7152 19.7289 35.8635 19.7287C36.0118 19.7289 36.1586 19.6997 36.2955 19.6429C36.4325 19.5861 36.5569 19.5028 36.6615 19.3978Z" fill="#387593"/>
</g>
<defs>
<clipPath id="clip0_218_427">
<rect width="64" height="64" fill="white"/>
</clipPath>
</defs>
</svg>
