<svg width="64" height="64" viewBox="0 0 64 64" fill="none" xmlns="http://www.w3.org/2000/svg">
<path d="M16.7912 2.26773C16.2564 2.25554 15.7303 2.40519 15.2819 2.69706C14.8335 2.98894 14.4838 3.40943 14.2784 3.90345C14.0731 4.39748 14.0217 4.94201 14.1311 5.46572C14.2405 5.98942 14.5055 6.46789 14.8914 6.83843L18.9128 10.8598L22.4101 14.3572L24.4612 16.4082H15.0274C11.127 16.4082 7.92697 19.0387 5.8709 22.5209C3.81484 26.0031 2.6709 30.5335 2.6709 35.5074V42.6431C2.6709 47.617 3.81988 52.1373 5.87594 55.6245C7.93201 59.1067 11.132 61.7322 15.0325 61.7322H48.9676C52.8681 61.7322 56.0732 59.1067 58.1343 55.6245C60.1903 52.1373 61.3393 47.6119 61.3393 42.6431V35.5074C61.3393 30.5285 60.1903 26.0031 58.1343 22.5209C56.0782 19.0387 52.8681 16.4082 48.9676 16.4082H39.544L41.595 14.3572L45.0924 10.8598L49.1138 6.83843C49.3879 6.59728 49.6097 6.30248 49.7655 5.97224C49.9212 5.642 50.0076 5.28333 50.0193 4.91839C50.031 4.55345 49.9677 4.18999 49.8334 3.85047C49.6991 3.51095 49.4966 3.20257 49.2384 2.94439C48.9802 2.68621 48.6718 2.4837 48.3323 2.34939C47.9928 2.21507 47.6293 2.1518 47.2644 2.16348C46.8994 2.17515 46.5408 2.26153 46.2105 2.41728C45.8803 2.57302 45.5855 2.79483 45.3443 3.06899L41.3229 7.0904L37.8256 10.5877L32.0001 16.4082L26.1796 10.5877L22.6823 7.0904L18.6608 3.06899C18.4176 2.81821 18.1272 2.61791 17.8064 2.47955C17.4855 2.34119 17.1406 2.27254 16.7912 2.26773Z" fill="white"/>
<path d="M36.3974 37.3753L30.2861 33.8474C29.9059 33.6233 29.4727 33.5052 29.0315 33.5052C28.5903 33.5052 28.1571 33.6233 27.7769 33.8474C26.9927 34.3006 26.5254 35.1109 26.5254 36.0175V43.0755C26.5254 43.98 26.9927 44.7943 27.7769 45.2456C28.1576 45.468 28.5906 45.5852 29.0315 45.5852C29.4724 45.5852 29.9054 45.468 30.2861 45.2456L36.3974 41.7196C37.1816 41.2644 37.6509 40.4521 37.6509 39.5475C37.6509 38.6409 37.1816 37.8286 36.3974 37.3753ZM40.3325 29.9744C40.0477 29.7013 39.667 29.5511 39.2724 29.5561C38.8779 29.5611 38.5011 29.7209 38.2233 30.0011C37.9455 30.2813 37.7889 30.6594 37.7872 31.054C37.7856 31.4485 37.939 31.8279 38.2145 32.1104C40.2041 34.082 41.2992 36.7235 41.2992 39.5475C41.2992 42.3715 40.2041 45.013 38.2145 46.9846C37.956 47.2703 37.8168 47.6443 37.8257 48.0295C37.8345 48.4148 37.9906 48.782 38.2619 49.0556C38.5333 49.3292 38.8991 49.4885 39.2843 49.5005C39.6694 49.5126 40.0445 49.3767 40.3325 49.1206C41.5987 47.8697 42.6025 46.3786 43.2852 44.7348C43.9678 43.0909 44.3154 41.3274 44.3077 39.5475C44.3154 37.7676 43.9678 36.004 43.2852 34.3602C42.6025 32.7164 41.5987 31.2253 40.3325 29.9744ZM23.3324 29.9844C23.1933 29.844 23.028 29.7323 22.8458 29.6558C22.6636 29.5793 22.4681 29.5394 22.2704 29.5385C22.0728 29.5375 21.8769 29.5756 21.694 29.6504C21.5111 29.7252 21.3447 29.8353 21.2043 29.9744C19.9386 31.2255 18.9352 32.7167 18.2529 34.3605C17.5707 36.0043 17.2233 37.7677 17.2311 39.5475C17.223 41.3276 17.5703 43.0914 18.2525 44.7356C18.9348 46.3797 19.9383 47.8712 21.2043 49.1226C21.3447 49.2617 21.5111 49.3718 21.694 49.4466C21.8769 49.5214 22.0728 49.5595 22.2704 49.5585C22.4681 49.5576 22.6636 49.5177 22.8458 49.4412C23.028 49.3647 23.1933 49.253 23.3324 49.1126C23.4715 48.9722 23.5816 48.8058 23.6564 48.6229C23.7312 48.44 23.7692 48.2441 23.7683 48.0465C23.7674 47.8489 23.7275 47.6534 23.651 47.4711C23.5745 47.2889 23.4628 47.1236 23.3223 46.9846C21.3327 45.013 20.2396 42.3715 20.2396 39.5475C20.2396 36.7235 21.3327 34.082 23.3223 32.1124C23.4628 31.9734 23.5745 31.8081 23.651 31.6258C23.7275 31.4436 23.7674 31.2481 23.7683 31.0505C23.7692 30.8529 23.7312 30.657 23.6564 30.4741C23.5816 30.2912 23.4715 30.1248 23.3324 29.9844Z" fill="#27419B"/>
</svg>
