<svg width="24" height="35" viewBox="0 0 24 30" fill="none" xmlns="http://www.w3.org/2000/svg">
<path d="M22.0938 4.3125H16.75V3.71875C16.75 2.08178 15.4182 0.75 13.7812 0.75H10.2188C8.58178 0.75 7.25 2.08178 7.25 3.71875V4.3125H1.90625C1.59131 4.3125 1.28926 4.43761 1.06656 4.66031C0.843861 4.88301 0.71875 5.18505 0.71875 5.5V7.28125C0.71875 7.59619 0.843861 7.89824 1.06656 8.12094C1.28926 8.34364 1.59131 8.46875 1.90625 8.46875H22.0938C22.4087 8.46875 22.7107 8.34364 22.9334 8.12094C23.1561 7.89824 23.2812 7.59619 23.2812 7.28125V5.5C23.2812 5.18505 23.1561 4.88301 22.9334 4.66031C22.7107 4.43761 22.4087 4.3125 22.0938 4.3125ZM9.625 3.71875C9.625 3.39159 9.89159 3.125 10.2188 3.125H13.7812C14.1084 3.125 14.375 3.39159 14.375 3.71875V4.3125H9.625V3.71875ZM21.6662 10.0452C21.5549 9.92271 21.4193 9.82486 21.2679 9.75789C21.1166 9.69092 20.953 9.6563 20.7875 9.65625H3.2125C3.04701 9.65633 2.88337 9.69098 2.73205 9.75798C2.58073 9.82498 2.44508 9.92285 2.33379 10.0453C2.22249 10.1678 2.13801 10.3122 2.08576 10.4692C2.03351 10.6262 2.01463 10.7924 2.03034 10.9572L3.48978 26.2094C3.65544 27.9431 5.18078 29.2506 7.03803 29.2506H16.962C18.8186 29.2506 20.3446 27.9431 20.5102 26.2094L21.9697 10.9572C21.9854 10.7924 21.9666 10.6261 21.9143 10.4691C21.8621 10.312 21.7776 10.1676 21.6662 10.0452ZM9.22481 26.2789C9.19928 26.2801 9.17434 26.2812 9.14881 26.2812C8.84703 26.2809 8.55668 26.1657 8.33677 25.9591C8.11686 25.7524 7.98389 25.4697 7.96488 25.1686L7.25237 13.8873C7.2327 13.573 7.33859 13.2638 7.54678 13.0276C7.75497 12.7913 8.04843 12.6474 8.36269 12.6274C8.67681 12.6083 8.98569 12.7144 9.2218 12.9225C9.4579 13.1306 9.60201 13.4237 9.62263 13.7377L10.3351 25.0189C10.3548 25.3332 10.2489 25.6424 10.0407 25.8787C9.83253 26.1149 9.53907 26.2589 9.22481 26.2789ZM16.0351 25.1686C16.0261 25.3248 15.9863 25.4776 15.9179 25.6184C15.8496 25.7592 15.7542 25.885 15.637 25.9888C15.5199 26.0925 15.3835 26.1721 15.2355 26.223C15.0875 26.2738 14.931 26.2949 14.7748 26.285C14.6186 26.2752 14.466 26.2346 14.3256 26.1655C14.1852 26.0965 14.0598 26.0004 13.9567 25.8827C13.8535 25.765 13.7746 25.6282 13.7246 25.4799C13.6745 25.3317 13.6542 25.175 13.6649 25.0189L14.3774 13.7377C14.3988 13.4245 14.5433 13.1326 14.7793 12.9257C15.0153 12.7188 15.3237 12.6137 15.6369 12.6335C15.9502 12.6533 16.2429 12.7963 16.451 13.0312C16.6591 13.2662 16.7658 13.574 16.7476 13.8873L16.0351 25.1686Z" fill="#ED1717"/>
</svg>
