<svg width="30" height="30" viewBox="0 0 30 30" fill="none" xmlns="http://www.w3.org/2000/svg">
<path d="M22.0837 12.9513C17.7188 12.9513 14.1677 16.5024 14.1677 20.8671C14.1677 25.2322 17.7188 28.7833 22.0837 28.7833C26.4488 28.7833 29.9999 25.2322 29.9999 20.8671C29.9999 16.5021 26.4488 12.9513 22.0837 12.9513ZM10.2012 8.12418L12.0553 7.34781C12.1672 7.3009 12.2874 7.27674 12.4087 7.27674C12.5301 7.27674 12.6502 7.3009 12.7621 7.34781L14.616 8.12418V1H10.2012V8.12418Z" fill="#E90957"/>
<path d="M22.0839 11.1211C23.0326 11.1211 23.9497 11.258 24.8174 11.5121V3.24807C24.8174 2.00846 23.809 1 22.5694 1H16.4461V9.49932C16.4461 9.61948 16.4224 9.73847 16.3765 9.84949C16.3305 9.96051 16.2631 10.0614 16.1781 10.1463C16.0931 10.2313 15.9922 10.2987 15.8812 10.3446C15.7701 10.3906 15.6511 10.4142 15.531 10.4141C15.4097 10.4142 15.2896 10.39 15.1777 10.3432L12.4086 9.18391L9.63961 10.3432C9.50056 10.4015 9.34926 10.4245 9.19917 10.4102C9.04908 10.3959 8.90485 10.3447 8.77932 10.2611C8.6538 10.1776 8.55087 10.0644 8.47969 9.93145C8.40851 9.79854 8.37129 9.65009 8.37135 9.49932V1H2.24807C1.00846 1 0 2.0084 0 3.24807V23.5694C0 24.809 1.0084 25.8174 2.24807 25.8174H13.6917C12.8323 24.3656 12.3379 22.6733 12.3379 20.8674C12.3379 15.4932 16.71 11.1211 22.0839 11.1211Z" fill="#E90957"/>
<path d="M20.6491 23.6901C20.6491 23.8905 20.5897 24.0865 20.4783 24.2532C20.3669 24.4199 20.2086 24.5498 20.0234 24.6265C19.8382 24.7033 19.6344 24.7233 19.4377 24.6842C19.2411 24.6451 19.0605 24.5486 18.9187 24.4068C18.777 24.2651 18.6804 24.0844 18.6413 23.8878C18.6022 23.6912 18.6223 23.4874 18.699 23.3022C18.7757 23.1169 18.9056 22.9586 19.0723 22.8472C19.239 22.7359 19.435 22.6764 19.6355 22.6764C19.7686 22.6764 19.9004 22.7026 20.0234 22.7536C20.1464 22.8045 20.2581 22.8792 20.3522 22.9733C20.4464 23.0674 20.521 23.1792 20.572 23.3022C20.6229 23.4251 20.6491 23.5569 20.6491 23.6901ZM26.1228 22.6764C25.9223 22.6764 25.7263 22.7359 25.5597 22.8472C25.393 22.9586 25.263 23.1169 25.1863 23.3022C25.1096 23.4874 25.0895 23.6912 25.1286 23.8878C25.1677 24.0844 25.2643 24.2651 25.406 24.4068C25.5478 24.5486 25.7284 24.6451 25.9251 24.6842C26.1217 24.7233 26.3255 24.7033 26.5107 24.6265C26.6959 24.5498 26.8542 24.4199 26.9656 24.2532C27.077 24.0865 27.1364 23.8905 27.1364 23.6901C27.1364 23.4212 27.0297 23.1634 26.8396 22.9733C26.6495 22.7832 26.3916 22.6764 26.1228 22.6764ZM24.2982 18.0136V23.6901C24.2982 23.7438 24.2769 23.7954 24.2389 23.8334C24.2008 23.8714 24.1493 23.8928 24.0955 23.8928H21.0384C21.0445 23.8254 21.0445 23.7575 21.0384 23.6901C21.0384 23.3137 20.8888 22.9527 20.6227 22.6866C20.3566 22.4205 19.9956 22.271 19.6193 22.271C19.2429 22.271 18.8819 22.4205 18.6158 22.6866C18.3497 22.9527 18.2002 23.3137 18.2002 23.6901C18.194 23.7575 18.194 23.8254 18.2002 23.8928H18.0136C17.7448 23.8928 17.487 23.786 17.2969 23.5959C17.1068 23.4058 17 23.148 17 22.8791V18.0136C17 17.7448 17.1068 17.487 17.2969 17.2969C17.487 17.1068 17.7448 17 18.0136 17H23.2846C23.4177 17 23.5495 17.0262 23.6725 17.0772C23.7955 17.1281 23.9072 17.2028 24.0014 17.2969C24.0955 17.391 24.1701 17.5028 24.2211 17.6257C24.272 17.7487 24.2982 17.8805 24.2982 18.0136ZM23.0819 20.4464C23.0819 20.3926 23.0605 20.3411 23.0225 20.303C22.9845 20.265 22.9329 20.2437 22.8791 20.2437H18.8246C18.7708 20.2437 18.7192 20.265 18.6812 20.303C18.6432 20.3411 18.6218 20.3926 18.6218 20.4464C18.6218 20.5002 18.6432 20.5517 18.6812 20.5897C18.7192 20.6278 18.7708 20.6491 18.8246 20.6491H22.8791C22.9329 20.6491 22.9845 20.6278 23.0225 20.5897C23.0605 20.5517 23.0819 20.5002 23.0819 20.4464ZM23.0819 18.8246C23.0819 18.7708 23.0605 18.7192 23.0225 18.6812C22.9845 18.6432 22.9329 18.6218 22.8791 18.6218H20.4464C20.3926 18.6218 20.3411 18.6432 20.303 18.6812C20.265 18.7192 20.2437 18.7708 20.2437 18.8246C20.2437 18.8783 20.265 18.9299 20.303 18.9679C20.3411 19.0059 20.3926 19.0273 20.4464 19.0273H22.8791C22.9329 19.0273 22.9845 19.0059 23.0225 18.9679C23.0605 18.9299 23.0819 18.8783 23.0819 18.8246ZM27.3878 20.4464L27.1081 20.3085L26.877 19.3881C26.8226 19.1691 26.6964 18.9746 26.5185 18.8357C26.3407 18.6968 26.1214 18.6215 25.8957 18.6218H24.7037V23.0819H24.8456C24.9825 22.7899 25.215 22.5534 25.5046 22.4116C25.7943 22.2698 26.1237 22.2311 26.4382 22.3021C26.7528 22.3731 27.0337 22.5493 27.2345 22.8018C27.4352 23.0542 27.5436 23.3676 27.5419 23.6901C27.668 23.5959 27.7704 23.4735 27.8408 23.3327C27.9112 23.1919 27.9477 23.0366 27.9474 22.8791V21.3546C27.9482 21.1661 27.8962 20.9811 27.7973 20.8206C27.6985 20.6601 27.5566 20.5304 27.3878 20.4464Z" fill="white"/>
</svg>
