<svg width="30" height="30" viewBox="0 0 30 30" fill="none" xmlns="http://www.w3.org/2000/svg">
<path d="M22.0837 12.9513C17.7188 12.9513 14.1677 16.5024 14.1677 20.8671C14.1677 25.2322 17.7188 28.7833 22.0837 28.7833C26.4488 28.7833 29.9999 25.2322 29.9999 20.8671C29.9999 16.5021 26.4488 12.9513 22.0837 12.9513ZM10.2012 8.12418L12.0553 7.34781C12.1672 7.3009 12.2874 7.27674 12.4087 7.27674C12.5301 7.27674 12.6502 7.3009 12.7621 7.34781L14.616 8.12418V1H10.2012V8.12418Z" fill="#E77B00"/>
<path d="M22.0839 11.1211C23.0326 11.1211 23.9497 11.258 24.8174 11.5121V3.24807C24.8174 2.00846 23.809 1 22.5694 1H16.4461V9.49932C16.4461 9.61948 16.4224 9.73847 16.3765 9.84949C16.3305 9.96051 16.2631 10.0614 16.1781 10.1463C16.0931 10.2313 15.9922 10.2987 15.8812 10.3446C15.7701 10.3906 15.6511 10.4142 15.531 10.4141C15.4097 10.4142 15.2896 10.39 15.1777 10.3432L12.4086 9.18391L9.63961 10.3432C9.50056 10.4015 9.34926 10.4245 9.19917 10.4102C9.04908 10.3959 8.90485 10.3447 8.77932 10.2611C8.6538 10.1776 8.55087 10.0644 8.47969 9.93145C8.40851 9.79854 8.37129 9.65009 8.37135 9.49932V1H2.24807C1.00846 1 0 2.0084 0 3.24807V23.5694C0 24.809 1.0084 25.8174 2.24807 25.8174H13.6917C12.8323 24.3656 12.3379 22.6733 12.3379 20.8674C12.3379 15.4932 16.71 11.1211 22.0839 11.1211Z" fill="#E77B00"/>
<path d="M25.9534 19.519C25.9176 19.4844 25.8892 19.4429 25.8697 19.3971C25.8503 19.3513 25.8402 19.3021 25.84 19.2523V18.1988C25.8396 17.923 25.7299 17.6587 25.5349 17.4637C25.34 17.2687 25.0756 17.159 24.7998 17.1586H23.7463C23.6965 17.1584 23.6473 17.1483 23.6015 17.1288C23.5557 17.1094 23.5143 17.081 23.4796 17.0453L22.7394 16.3051C22.5427 16.1097 22.2766 16 21.9993 16C21.722 16 21.4559 16.1097 21.2592 16.3051L20.519 17.0453C20.4844 17.081 20.4429 17.1094 20.3971 17.1288C20.3513 17.1483 20.3021 17.1584 20.2523 17.1586H19.1988C18.923 17.159 18.6587 17.2687 18.4637 17.4637C18.2687 17.6587 18.159 17.923 18.1586 18.1988V19.2523C18.1585 19.3021 18.1483 19.3513 18.1289 19.3971C18.1094 19.4429 18.081 19.4844 18.0453 19.519L17.3051 20.2592C17.1097 20.4559 17 20.722 17 20.9993C17 21.2766 17.1097 21.5427 17.3051 21.7394L18.0453 22.4796C18.081 22.5142 18.1094 22.5557 18.1289 22.6015C18.1483 22.6473 18.1585 22.6965 18.1586 22.7463V23.7998C18.159 24.0756 18.2687 24.34 18.4637 24.5349C18.6587 24.7299 18.923 24.8396 19.1988 24.84H20.2523C20.3021 24.8402 20.3513 24.8503 20.3971 24.8698C20.4429 24.8893 20.4844 24.9177 20.519 24.9534L21.2592 25.6935C21.4555 25.8897 21.7217 26 21.9993 26C22.2769 26 22.5431 25.8897 22.7394 25.6935L23.4796 24.9534C23.5143 24.9177 23.5557 24.8893 23.6015 24.8698C23.6473 24.8503 23.6965 24.8402 23.7463 24.84H24.7998C25.0756 24.8396 25.34 24.7299 25.5349 24.5349C25.7299 24.34 25.8396 24.0756 25.84 23.7998V22.7463C25.8402 22.6965 25.8503 22.6473 25.8697 22.6015C25.8892 22.5557 25.9176 22.5142 25.9534 22.4796L26.6935 21.7394C26.8889 21.5427 26.9986 21.2766 26.9986 20.9993C26.9986 20.722 26.8889 20.4559 26.6935 20.2592L25.9534 19.519ZM23.5663 20.3459L21.7926 22.1262C21.7284 22.1862 21.6438 22.2196 21.5559 22.2196C21.468 22.2196 21.3834 22.1862 21.3192 22.1262L20.4324 21.2327C20.3715 21.1706 20.3376 21.087 20.338 21C20.3385 20.913 20.3732 20.8298 20.4347 20.7683C20.4962 20.7068 20.5795 20.6721 20.6664 20.6716C20.7534 20.6712 20.837 20.7051 20.8991 20.7659L21.5526 21.4194L23.0995 19.8724C23.1619 19.8115 23.2457 19.7774 23.3329 19.7774C23.4201 19.7774 23.5039 19.8115 23.5663 19.8724C23.5979 19.9032 23.6231 19.94 23.6403 19.9807C23.6574 20.0213 23.6663 20.065 23.6663 20.1092C23.6663 20.1533 23.6574 20.197 23.6403 20.2376C23.6231 20.2783 23.5979 20.3151 23.5663 20.3459Z" fill="white"/>
</svg>
