<svg width="30" height="30" viewBox="0 0 30 30" fill="none" xmlns="http://www.w3.org/2000/svg">
<path d="M14.9993 0.384277C6.9285 0.384277 0.384521 6.92826 0.384521 14.999C0.384521 23.0698 6.9285 29.615 14.9993 29.615C23.0701 29.615 29.6153 23.0698 29.6153 14.999C29.6153 6.92826 23.0701 0.384277 14.9993 0.384277ZM18.0418 23.0352C17.2895 23.3321 16.6906 23.5573 16.2415 23.7132C15.7377 23.8777 15.2099 23.9568 14.6801 23.9471C13.7694 23.9471 13.0605 23.7243 12.5557 23.2802C12.0508 22.836 11.7997 22.273 11.7997 21.5888C11.7997 21.3228 11.8182 21.0506 11.8554 20.7734C11.9012 20.4577 11.9619 20.1443 12.0372 19.8343L12.9788 16.5085C13.0617 16.1893 13.1335 15.8862 13.1904 15.6041C13.2473 15.3195 13.2745 15.0584 13.2745 14.8209C13.2745 14.3977 13.1867 14.1008 13.0122 13.9337C12.8353 13.7667 12.5024 13.685 12.0063 13.685C11.7638 13.685 11.5139 13.7209 11.2577 13.7964C11.0041 13.8744 10.7839 13.9449 10.6032 14.0142L10.8519 12.9897C11.4681 12.7385 12.0583 12.5232 12.6212 12.3451C13.136 12.1728 13.6745 12.0818 14.2173 12.0753C15.1218 12.0753 15.8196 12.2956 16.3108 12.7311C16.7995 13.1679 17.0457 13.7358 17.0457 14.4336C17.0457 14.5784 17.0284 14.8332 16.995 15.197C16.966 15.5369 16.903 15.8731 16.8069 16.2004L15.8703 19.5164C15.7864 19.8163 15.7174 20.1202 15.6637 20.427C15.6127 20.6823 15.5825 20.9413 15.5734 21.2015C15.5734 21.642 15.6711 21.9427 15.8691 22.1023C16.0646 22.2619 16.4073 22.3423 16.8923 22.3423C17.1212 22.3423 17.3773 22.3015 17.6669 22.2223C17.9539 22.1431 18.1618 22.0726 18.2929 22.0119L18.0418 23.0352ZM17.876 9.57604C17.4501 9.97764 16.8837 10.1962 16.2984 10.1848C15.6847 10.1848 15.1552 9.98186 14.7147 9.57604C14.5052 9.39178 14.3379 9.16457 14.2241 8.90986C14.1103 8.65516 14.0527 8.37892 14.0552 8.09996C14.0552 7.52463 14.2779 7.02971 14.7147 6.62017C15.1415 6.21537 15.7103 5.99452 16.2984 6.00524C16.9134 6.00524 17.4404 6.2094 17.876 6.62017C18.3127 7.02971 18.5317 7.52463 18.5317 8.09996C18.5317 8.67777 18.3127 9.17021 17.876 9.57604Z" fill="#00C1F1"/>
</svg>
