<svg width="30" height="30" viewBox="0 0 30 30" fill="none" xmlns="http://www.w3.org/2000/svg">
<path d="M9.9867 24.6032C10.9262 23.661 11.517 22.427 11.6617 21.1043C11.7614 20.2324 11.6624 19.3493 11.372 18.5212C11.0817 17.693 10.6075 16.9414 9.9852 16.3227C9.23405 15.569 8.28812 15.0391 7.25311 14.792C6.27508 14.5438 5.24926 14.5545 4.27664 14.8232C3.30402 15.0918 2.41814 15.6092 1.70622 16.3242C0.696603 17.3231 0.0951595 18.6621 0.0191479 20.0803C-0.0319755 20.6697 0.0191477 21.2802 0.174022 21.8696C0.413098 22.874 0.930347 23.8273 1.70622 24.6032C2.24979 25.1469 2.89513 25.5781 3.60539 25.8724C4.31565 26.1666 5.07692 26.3181 5.84571 26.3181C6.6145 26.3181 7.37577 26.1666 8.08603 25.8724C8.79628 25.5781 9.44163 25.1469 9.9852 24.6032H9.9867ZM30 13.8823V15.3469C30 15.5384 29.9249 15.7222 29.7908 15.8589C29.6566 15.9955 29.4742 16.0741 29.2828 16.0776H27.1461C26.3702 16.0776 25.6665 15.5063 25.6094 14.7454C25.5897 14.5312 25.6174 14.3154 25.6907 14.1131C25.764 13.9109 25.881 13.7274 26.0334 13.5756C26.1659 13.4383 26.3251 13.3297 26.5012 13.2565C26.6774 13.1833 26.8667 13.1471 27.0574 13.1501H29.2677C29.6918 13.1651 30 13.4869 30 13.8823Z" fill="#165CFF"/>
<path d="M27.0395 11.6114H28.5326C28.9202 11.6102 29.2917 11.4557 29.5658 11.1815C29.8399 10.9074 29.9944 10.536 29.9956 10.1483V9.50328C29.9924 8.0447 29.4116 6.64676 28.3802 5.61538C27.3489 4.58401 25.9509 4.00318 24.4923 4H7.69079C6.44729 4 5.30453 4.41049 4.38281 5.11269C3.69997 5.62276 3.14585 6.28541 2.76469 7.04775C2.38352 7.81008 2.18587 8.65097 2.18751 9.50328V12.1091C2.18751 12.6654 2.77393 13.0173 3.3002 12.8413C4.12034 12.5615 4.98076 12.4177 5.84734 12.4158C7.98109 12.4198 10.0263 13.2693 11.5349 14.7782C13.0436 16.2871 13.8927 18.3325 13.8963 20.4662C13.8963 21.5188 13.6181 22.6766 13.179 23.7005C12.9445 24.2268 13.3114 24.8568 13.8812 24.8568H24.4923C25.9509 24.8537 27.3489 24.2728 28.3802 23.2415C29.4116 22.2101 29.9924 20.8121 29.9956 19.3536V19.0754C29.9944 18.6877 29.8399 18.3163 29.5658 18.0422C29.2917 17.7681 28.9202 17.6135 28.5326 17.6124H27.259C25.8546 17.6124 24.5074 16.7478 24.142 15.387C24.0018 14.8776 24.0011 14.3399 24.1399 13.8301C24.2788 13.3204 24.5522 12.8574 24.9314 12.4895C25.2057 12.2089 25.5337 11.9864 25.8959 11.8356C26.2582 11.6847 26.6471 11.6084 27.0395 11.6114ZM19.0191 11.3182H11.6995C11.0995 11.3182 10.6018 10.822 10.6018 10.2205C10.6018 9.62056 11.0995 9.12286 11.6995 9.12286H19.0176C19.6176 9.12286 20.1153 9.62056 20.1153 10.2205C20.1153 10.822 19.6191 11.3182 19.0191 11.3182Z" fill="#165CFF"/>
<path d="M5.68262 22.8828C6.09924 22.8828 6.4375 23.267 6.4375 23.7168C6.4373 24.1555 6.10907 24.5498 5.68262 24.5498C5.25555 24.5496 4.9377 24.1545 4.9375 23.7168C4.9375 23.268 5.26534 22.883 5.68262 22.8828ZM5.80176 16.9502C6.99381 16.9502 7.7996 17.689 7.7998 18.6787C7.7998 19.1708 7.59987 19.5936 7.37109 19.918C7.19955 20.1611 7.01018 20.3505 6.87402 20.4756L6.75879 20.5791C6.51168 20.794 6.38964 20.9731 6.32812 21.1592C6.26605 21.3473 6.26367 21.5477 6.26367 21.8135C6.26366 21.9173 6.23902 22.0369 6.14746 22.1299C6.0558 22.223 5.90551 22.2803 5.67383 22.2803C5.48126 22.2803 5.33546 22.2414 5.24219 22.1182C5.15243 21.9995 5.12109 21.8139 5.12109 21.5488C5.1211 21.1043 5.20933 20.7734 5.33301 20.5205C5.45661 20.2678 5.61422 20.0951 5.74902 19.9658L6.00586 19.7412C6.09569 19.6635 6.18602 19.5822 6.2666 19.4932C6.4279 19.3149 6.54773 19.1099 6.54785 18.8525C6.54785 18.6331 6.46276 18.4746 6.32715 18.3701C6.18978 18.2643 5.99569 18.21 5.77441 18.21C5.54858 18.21 5.39582 18.2575 5.28516 18.3252C5.17429 18.393 5.10127 18.484 5.03906 18.5791C5.00722 18.6278 4.98019 18.6747 4.9502 18.7227C4.92113 18.7691 4.88988 18.8146 4.85449 18.8545C4.78159 18.9366 4.68888 18.9941 4.54883 18.9941C4.2795 18.9941 3.9502 18.7927 3.9502 18.3633C3.95045 17.7823 4.54374 16.9502 5.80176 16.9502Z" fill="white" stroke="white" stroke-width="0.1"/>
</svg>
