<svg width="30" height="30" viewBox="0 0 30 30" fill="none" xmlns="http://www.w3.org/2000/svg">
<path d="M22.1533 21.0604C22.1533 21.8543 21.5041 22.5035 20.7102 22.5035H19.9244C20.7184 22.5035 21.3676 23.1527 21.3676 23.9467C21.3676 24.7406 20.7184 25.3898 19.9244 25.3898H19.3379C20.1318 25.3898 20.7811 26.0408 20.7811 26.8348C20.7811 27.6287 20.1318 28.2779 19.3379 28.2779H17.1324C16.3385 28.2779 15.6893 27.6287 15.6893 26.8348C15.6893 26.0408 16.3385 25.3898 17.1324 25.3898C16.3385 25.3898 15.6893 24.7406 15.6893 23.9467C15.6893 23.6561 15.7771 23.3836 15.9283 23.1562C16.4779 23.5031 17.1658 23.6314 17.8367 23.4504C18.4033 23.2992 18.868 22.9535 19.182 22.5035C19.5775 21.9387 19.7316 21.2115 19.5406 20.5002L19.3033 19.6166L18.6008 16.9939C18.5773 16.9025 18.5475 16.8146 18.5146 16.7297H19.925C20.7189 16.7297 21.3682 17.3789 21.3682 18.1728C21.3682 18.9668 20.7189 19.616 19.925 19.616H20.7107C21.5041 19.6172 22.1533 20.2664 22.1533 21.0604ZM15.8188 21.4975C16.025 22.265 16.8201 22.7232 17.5877 22.5187C18.3535 22.3125 18.8135 21.5174 18.6072 20.7498L18.0008 18.4875L17.6691 17.2436C17.44 16.3934 16.5611 15.8848 15.7092 16.1127L12.4273 16.9928C11.9703 17.1158 11.5982 17.2898 11.215 17.5658L10.9244 17.7732C10.26 18.2484 9.55742 18.474 8.74004 18.474H8.14707V26.8318H8.98086C9.6418 26.8318 10.2102 26.9777 10.7896 27.2953L11.733 27.8133C12.0834 28.0078 12.4309 28.1373 12.7977 28.2088V22.9318C12.2709 23.4035 11.6117 23.7275 10.8811 23.8371C10.7381 23.8605 10.6051 23.8225 10.4943 23.7258C10.3848 23.6309 10.3268 23.5066 10.3268 23.3602C10.3262 23.2445 10.3674 23.1324 10.4427 23.0446C10.518 22.9568 10.6225 22.8991 10.7369 22.882H10.7387C12.0541 22.6828 13.0672 21.5414 13.0672 20.1732V19.8094L15.2129 19.2346L15.8188 21.4975ZM6.49121 16.9881H2.69082C2.31055 16.9881 2 17.3004 2 17.6789V27.2508C2 27.6311 2.31055 27.9416 2.69082 27.9416H6.49121C6.87148 27.9416 7.18203 27.6311 7.18203 27.2508V17.6789C7.18203 17.3004 6.87148 16.9881 6.49121 16.9881ZM22.243 7.0541C22.243 10.459 19.8277 13.3025 16.6174 13.9617V15.1441C16.2436 15.068 15.8498 15.0762 15.4596 15.1805L13.7621 15.634V13.9617C10.5518 13.3025 8.13652 10.459 8.13652 7.0541C8.13652 3.15762 11.2941 0 15.1906 0C19.0859 0 22.243 3.15762 22.243 7.0541ZM20.3979 7.0541C20.3979 4.17715 18.0658 1.84687 15.1906 1.84687C12.3137 1.84687 9.9834 4.17715 9.9834 7.0541C9.9834 9.9293 12.3137 12.2613 15.1906 12.2613C18.0658 12.2607 20.3979 9.92871 20.3979 7.0541ZM14.7242 26.8354C14.7242 26.2939 14.9035 25.7941 15.2059 25.3904C14.8926 24.9746 14.7235 24.4679 14.7242 23.9473C14.7242 23.3959 14.91 22.8879 15.224 22.4807C15.0705 22.2574 14.956 22.0098 14.8854 21.7482L14.5297 20.4176L14.0129 20.557C13.9769 20.901 13.8924 21.2381 13.7621 21.5584V29.2781C13.7621 29.6437 14.0609 29.9408 14.4248 29.9408H15.9547C16.3186 29.9408 16.6174 29.6437 16.6174 29.2781V29.1885C15.5363 28.9518 14.7242 27.985 14.7242 26.8354ZM27.3605 6.58359H24.3096C24.0506 6.58359 23.8414 6.79453 23.8414 7.05351C23.8414 7.31074 24.0506 7.52168 24.3096 7.52168H27.3605C27.6195 7.52168 27.8305 7.31074 27.8305 7.05351C27.8305 6.79453 27.6195 6.58359 27.3605 6.58359ZM3.01953 7.52227H6.07051C6.32949 7.52227 6.53867 7.31133 6.53867 7.0541C6.53867 6.79512 6.32949 6.58418 6.07051 6.58418H3.01953C2.76055 6.58418 2.55137 6.79512 2.55137 7.0541C2.55137 7.31133 2.76055 7.52227 3.01953 7.52227ZM23.3228 2.89805L25.9654 1.37168C26.1881 1.24395 26.2643 0.95625 26.1348 0.733594C26.1041 0.680316 26.0632 0.633615 26.0145 0.596168C25.9657 0.558721 25.91 0.531263 25.8506 0.515369C25.7913 0.499474 25.7293 0.495456 25.6684 0.503544C25.6074 0.511631 25.5487 0.531666 25.4955 0.5625L22.8529 2.08887C22.6303 2.21836 22.5541 2.5043 22.6836 2.72812C22.8131 2.95137 23.0984 3.02754 23.3228 2.89805ZM7.05898 11.2078L4.41641 12.7342C4.36313 12.7649 4.31643 12.8057 4.27898 12.8545C4.24153 12.9032 4.21408 12.9589 4.19818 13.0183C4.18229 13.0777 4.17827 13.1396 4.18636 13.2006C4.19444 13.2615 4.21448 13.3203 4.24531 13.3734C4.3748 13.5961 4.66074 13.6723 4.88457 13.5428L7.52715 12.0164C7.75156 11.8887 7.82598 11.601 7.69648 11.3789C7.56875 11.1545 7.28164 11.0783 7.05898 11.2078ZM25.9654 12.7342L23.3228 11.2078C23.2697 11.177 23.2109 11.1569 23.15 11.1488C23.089 11.1407 23.0271 11.1447 22.9677 11.1606C22.9083 11.1765 22.8526 11.204 22.8039 11.2414C22.7551 11.2789 22.7143 11.3256 22.6836 11.3789C22.5541 11.6016 22.6303 11.8887 22.8529 12.0182L25.4955 13.5428C25.7199 13.6723 26.0053 13.5961 26.1348 13.3734C26.2643 13.1496 26.1881 12.8637 25.9654 12.7342ZM7.52715 2.08945L4.88457 0.563086C4.83139 0.532237 4.77264 0.512189 4.7117 0.504093C4.65075 0.495997 4.58881 0.500012 4.52942 0.515907C4.47003 0.531803 4.41436 0.559266 4.36561 0.596722C4.31685 0.634178 4.27597 0.68089 4.24531 0.73418C4.11582 0.956836 4.19199 1.24219 4.41641 1.37227L7.05898 2.89863C7.28164 3.02813 7.56875 2.95195 7.69707 2.72754C7.72796 2.67452 7.74806 2.61593 7.75624 2.55511C7.76441 2.4943 7.76049 2.43248 7.7447 2.37319C7.72891 2.3139 7.70157 2.25831 7.66423 2.20962C7.6269 2.16092 7.58031 2.12009 7.52715 2.08945Z" fill="#FF1D1D"/>
<path d="M16.416 5.01758C16.5724 4.86121 16.826 4.8612 16.9824 5.01758C17.1388 5.17397 17.1388 5.42759 16.9824 5.58398L15.5654 7L16.9824 8.41602C17.1388 8.57241 17.1388 8.82604 16.9824 8.98242C16.826 9.13879 16.5724 9.13879 16.416 8.98242L15 7.56543L13.584 8.98242C13.4276 9.13879 13.174 9.13879 13.0176 8.98242C12.8612 8.82603 12.8612 8.57238 13.0176 8.41602L14.4336 7L13.0176 5.58398C12.8612 5.42759 12.8612 5.17396 13.0176 5.01758C13.174 4.86121 13.4276 4.86121 13.584 5.01758L15 6.43359L16.416 5.01758Z" fill="#FF1D1D" stroke="#FF1D1D" stroke-width="0.2"/>
</svg>
