<svg width="376" height="202" viewBox="0 0 376 202" fill="none" xmlns="http://www.w3.org/2000/svg">
<g opacity="0.2">
<mask id="mask0_195_2371" style="mask-type:alpha" maskUnits="userSpaceOnUse" x="0" y="0" width="376" height="202">
<rect width="375.676" height="202" rx="22" fill="url(#paint0_linear_195_2371)"/>
</mask>
<g mask="url(#mask0_195_2371)">
<path fill-rule="evenodd" clip-rule="evenodd" d="M166.333 -58.053C185.214 -81.4857 193.48 -114.552 196.165 -146.303C198.851 -178.065 195.959 -208.587 192.46 -227L191.478 -226.813C194.962 -208.479 197.846 -178.049 195.168 -146.387C192.49 -114.715 184.252 -81.8848 165.554 -58.6804C153.909 -44.2275 136.257 -35.7529 115.446 -30.8959C94.6346 -26.0392 70.7184 -24.8124 46.6076 -24.8124C34.5546 -24.8124 22.4606 -25.1189 10.6871 -25.43L9.09525 -25.4721C-2.11627 -25.769 -13.0219 -26.0578 -23.2952 -26.075C-44.7934 -26.1111 -63.6025 -24.9605 -76.7089 -20.1644C-97.7505 -12.4646 -108.509 6.2424 -113.427 26.3762C-118.345 46.5109 -117.452 68.169 -115.116 81.9742L-114.13 81.8074C-116.449 68.0999 -117.334 46.584 -112.455 26.6135C-107.577 6.64215 -96.9645 -11.6873 -76.3653 -19.2253C-63.4463 -23.9529 -44.8042 -25.1111 -23.2969 -25.075C-13.0358 -25.0578 -2.14081 -24.7693 9.07544 -24.4723L10.6607 -24.4304C22.4331 -24.1192 34.5396 -23.8124 46.6076 -23.8124C70.7391 -23.8124 94.7477 -25.0387 115.673 -29.9221C136.597 -34.8052 154.492 -43.3577 166.333 -58.053ZM202.513 -138.222C199.827 -106.471 191.562 -73.405 172.681 -49.9723C160.84 -35.277 142.945 -26.7245 122.02 -21.8414C101.095 -16.958 77.0868 -15.7317 52.9553 -15.7317C40.8872 -15.7317 28.7808 -16.0385 17.0084 -16.3497L15.4231 -16.3916C4.20688 -16.6886 -6.68811 -16.9771 -16.9492 -16.9943C-38.4565 -17.0304 -57.0986 -15.8722 -70.0176 -11.1446C-90.6168 -3.60666 -101.229 14.7228 -106.108 34.6942C-110.986 54.6647 -110.102 76.1806 -107.782 89.8881L-108.768 90.055C-111.104 76.2497 -111.997 54.5916 -107.079 34.4569C-102.161 14.3231 -91.4028 -4.38387 -70.3613 -12.0837C-57.2548 -16.8799 -38.4457 -18.0304 -16.9475 -17.9943C-6.67426 -17.9771 4.23141 -17.6883 15.4429 -17.3914L17.0348 -17.3493C28.8082 -17.0382 40.9023 -16.7317 52.9553 -16.7317C77.0661 -16.7317 100.982 -17.9585 121.793 -22.8152C142.605 -27.6722 160.257 -36.1469 171.902 -50.5997C190.599 -73.8041 198.838 -106.634 201.516 -138.307C204.194 -169.968 201.309 -200.398 197.826 -218.733L198.808 -218.919C202.307 -200.506 205.199 -169.984 202.513 -138.222ZM179.028 -41.8918C197.91 -65.3244 206.175 -98.3907 208.86 -130.142C211.546 -161.904 208.655 -192.425 205.156 -210.839L204.173 -210.652C207.657 -192.318 210.542 -161.888 207.864 -130.226C205.185 -98.5533 196.947 -65.7236 178.25 -42.5192C166.604 -28.0663 148.953 -19.5916 128.141 -14.7347C107.33 -9.87793 83.4138 -8.65115 59.303 -8.65115C47.2499 -8.65115 35.1559 -8.9576 23.3825 -9.26875L21.7906 -9.31088C10.5791 -9.60776 -0.326569 -9.89653 -10.5998 -9.91376C-32.098 -9.94983 -50.9072 -8.79929 -64.0136 -4.00317C-85.0551 3.6967 -95.8132 22.4037 -100.731 42.5375C-105.65 62.6721 -104.756 84.3303 -102.421 98.1355L-101.435 97.9687C-103.754 84.2611 -104.638 62.7453 -99.7599 42.7748C-94.8815 22.8034 -84.2691 4.47391 -63.6699 -3.06407C-50.7509 -7.79163 -32.1088 -8.94984 -10.6015 -8.91377C-0.340416 -8.89655 10.5546 -8.60806 21.7708 -8.31105L23.356 -8.2691C35.1284 -7.95798 47.2349 -7.65115 59.303 -7.65115C83.4345 -7.65115 107.443 -8.87746 128.368 -13.7608C149.292 -18.644 167.188 -27.1965 179.028 -41.8918ZM215.208 -122.061C212.523 -90.31 204.257 -57.2438 185.376 -33.8111C173.535 -19.1158 155.64 -10.5633 134.716 -5.68015C113.791 -0.796768 89.7822 0.429535 65.6507 0.429535C53.5826 0.429535 41.4762 0.122711 29.7037 -0.188416L28.1185 -0.230362C16.9023 -0.527374 6.00728 -0.815857 -4.25383 -0.833084C-25.7611 -0.869156 -44.4032 0.289062 -57.3222 5.01662C-77.9214 12.5546 -88.5338 30.8841 -93.4122 50.8555C-98.2905 70.826 -97.4063 92.3418 -95.0871 106.049L-96.0731 106.216C-98.4088 92.411 -99.302 70.7529 -94.3837 50.6182C-89.4655 30.4843 -78.7074 11.7774 -57.6659 4.07751C-44.5595 -0.718597 -25.7503 -1.86914 -4.25215 -1.83307C6.02112 -1.81584 16.9268 -1.52707 28.1383 -1.23019L29.7302 -1.18806C41.5036 -0.876907 53.5976 -0.570465 65.6507 -0.570465C89.7615 -0.570465 113.678 -1.79724 134.489 -6.65398C155.3 -11.5109 172.952 -19.9856 184.597 -34.4385C203.295 -57.6429 211.533 -90.4726 214.212 -122.145C216.889 -153.807 214.005 -184.237 210.521 -202.571L211.503 -202.758C215.002 -184.345 217.894 -153.823 215.208 -122.061ZM191.724 -25.7304C210.605 -49.1631 218.87 -82.2293 221.556 -113.98C224.242 -145.742 221.35 -176.264 217.851 -194.677L216.869 -194.491C220.352 -176.156 223.237 -145.726 220.559 -114.065C217.881 -82.3919 209.642 -49.5622 190.945 -26.3578C179.3 -11.9049 161.648 -3.43024 140.836 1.42673C120.025 6.28345 96.1092 7.51022 71.9984 7.51022C59.9453 7.51022 47.8513 7.2038 36.0779 6.89264L34.486 6.85049C23.2745 6.55362 12.3688 6.26486 2.09554 6.24762C-19.4026 6.21155 -38.2118 7.36209 -51.3182 12.1582C-72.3597 19.8581 -83.1178 38.565 -88.036 58.6989C-92.9543 78.8336 -92.0611 100.492 -89.7254 114.297L-88.7394 114.13C-91.0586 100.423 -91.9428 78.9067 -87.0645 58.9362C-82.1861 38.9648 -71.5737 20.6353 -50.9745 13.0973C-38.0555 8.36975 -19.4134 7.21155 2.09386 7.24762C12.355 7.26483 23.25 7.55331 34.4662 7.85034L36.0514 7.89227C47.8238 8.2034 59.9303 8.51022 71.9984 8.51022C96.1299 8.51022 120.138 7.28394 141.064 2.40054C161.988 -2.48257 179.883 -11.0351 191.724 -25.7304ZM227.903 -105.9C225.218 -74.1486 216.953 -41.0824 198.072 -17.6497C186.231 -2.95439 168.335 5.59811 147.411 10.4812C126.486 15.3646 102.478 16.5909 78.3461 16.5909C66.278 16.5909 54.1715 16.2841 42.3991 15.973L40.8139 15.931C29.5976 15.634 18.7027 15.3455 8.44156 15.3283C-13.0657 15.2922 -31.7078 16.4505 -44.6268 21.178C-65.226 28.716 -75.8384 47.0455 -80.7168 67.0168C-85.5951 86.9874 -84.7109 108.503 -82.3917 122.211L-83.3777 122.378C-85.7134 108.572 -86.6066 86.9142 -81.6883 66.7796C-76.7701 46.6458 -66.0121 27.9388 -44.9705 20.2389C-31.8641 15.4428 -13.0549 14.2923 8.44324 14.3283C18.7165 14.3456 29.6222 14.6343 40.8337 14.9312L42.4255 14.9733C54.199 15.2845 66.293 15.5909 78.3461 15.5909C102.457 15.5909 126.373 14.3642 147.184 9.50742C167.996 4.65045 185.647 -3.8242 197.293 -18.2771C215.99 -41.4815 224.228 -74.3112 226.907 -105.984C229.585 -137.646 226.7 -168.076 223.216 -186.41L224.199 -186.597C227.698 -168.183 230.59 -137.662 227.903 -105.9ZM204.419 -9.56898C223.3 -33.0017 231.566 -66.0679 234.251 -97.819C236.937 -129.581 234.045 -160.103 230.546 -178.516L229.564 -178.329C233.048 -159.995 235.932 -129.565 233.254 -97.9033C230.576 -66.2306 222.337 -33.4008 203.64 -10.1964C191.995 4.25648 174.343 12.7311 153.531 17.5881C132.721 22.4448 108.804 23.6716 84.6935 23.6716C72.6404 23.6716 60.5464 23.3652 48.773 23.054L47.1811 23.0119C35.9696 22.715 25.0639 22.4262 14.7907 22.409C-6.70747 22.3729 -25.5166 23.5235 -38.6231 28.3196C-59.6646 36.0195 -70.4227 54.7264 -75.3408 74.8603C-80.2592 94.9949 -79.366 116.653 -77.0303 130.458L-76.0443 130.291C-78.3635 116.584 -79.2476 95.0681 -74.3694 75.0976C-69.491 55.1262 -58.8786 36.7967 -38.2794 29.2587C-25.3604 24.5311 -6.71831 23.3729 14.789 23.409C25.0501 23.4262 35.9451 23.7147 47.1613 24.0117L48.7466 24.0537C60.519 24.3648 72.6254 24.6716 84.6935 24.6716C108.825 24.6716 132.834 23.4453 153.759 18.5619C174.683 13.6788 192.578 5.1263 204.419 -9.56898ZM240.599 -89.7383C237.913 -57.9872 229.648 -24.921 210.767 -1.48828C198.926 13.207 181.03 21.7595 160.106 26.6426C139.181 31.526 115.173 32.7523 91.0412 32.7523C78.9731 32.7523 66.8667 32.4455 55.0942 32.1344L53.509 32.0924C42.2928 31.7954 31.3978 31.5069 21.1367 31.4897C-0.370621 31.4536 -19.0127 32.6118 -31.9317 37.3394C-52.5309 44.8774 -63.1433 63.2069 -68.0217 83.1783C-72.9 103.149 -72.0158 124.665 -69.6966 138.372L-70.6826 138.539C-73.0183 124.734 -73.9115 103.076 -68.9932 82.9409C-64.075 62.8071 -53.3169 44.1002 -32.2754 36.4003C-19.169 31.6042 -0.359787 30.4536 21.1384 30.4897C31.4081 30.5069 42.3097 30.7957 53.5171 31.0926H53.5186H53.52H53.5215H53.523H53.5244H53.5259H53.5274H53.5288L55.1207 31.1347C66.8941 31.4459 78.9881 31.7523 91.0412 31.7523C115.152 31.7523 139.068 30.5255 159.879 25.6688C180.691 20.8118 198.342 12.3372 209.988 -2.11572C228.685 -25.3201 236.923 -58.1499 239.602 -89.8226C242.28 -121.484 239.395 -151.914 235.912 -170.249L236.894 -170.435C240.393 -152.022 243.285 -121.5 240.599 -89.7383ZM217.114 6.59241C235.995 -16.8403 244.261 -49.9066 246.946 -81.6576C249.632 -113.42 246.74 -143.941 243.242 -162.355L242.259 -162.168C245.743 -143.833 248.627 -113.404 245.95 -81.7419C243.271 -50.0692 235.033 -17.2394 216.336 5.96498C204.69 20.4179 187.039 28.8925 166.227 33.7495C145.416 38.6062 121.5 39.833 97.3889 39.833C85.3358 39.833 73.2418 39.5266 61.4684 39.2154L59.8765 39.1733C48.665 38.8764 37.7593 38.5876 27.4861 38.5704C5.98791 38.5343 -12.8213 39.6849 -25.9277 44.481C-46.9692 52.1808 -57.7273 70.8878 -62.6455 91.0217C-67.5638 111.156 -66.6706 132.814 -64.3349 146.62L-63.3489 146.453C-65.6681 132.745 -66.5523 111.229 -61.674 91.2589C-56.7956 71.2876 -46.1832 52.9581 -25.584 45.4201C-12.665 40.6925 5.97707 39.5343 27.4844 39.5704C37.7455 39.5876 48.6405 39.8761 59.8567 40.1731L61.4419 40.2151C73.2143 40.5262 85.3208 40.833 97.3889 40.833C121.52 40.833 145.529 39.6067 166.454 34.7233C187.378 29.8402 205.273 21.2877 217.114 6.59241ZM253.294 -73.5769C250.609 -41.8259 242.343 -8.75958 223.462 14.6731C211.621 29.3684 193.726 37.9209 172.802 42.804C151.877 47.6874 127.868 48.9137 103.737 48.9137C91.6685 48.9137 79.562 48.6069 67.7896 48.2957L66.2044 48.2538C54.9882 47.9568 44.0932 47.6683 33.8321 47.6511C12.3248 47.615 -6.31731 48.7732 -19.2363 53.5008C-39.8355 61.0388 -50.4479 79.3683 -55.3263 99.3396C-60.2046 119.31 -59.3204 140.826 -57.0012 154.534L-57.9872 154.7C-60.3229 140.895 -61.2161 119.237 -56.2978 99.1024C-51.3796 78.9685 -40.6216 60.2616 -19.58 52.5617C-6.47357 47.7656 12.3356 46.615 33.8337 46.6511C44.107 46.6683 55.0127 46.9571 66.2242 47.254L67.816 47.2961C79.5895 47.6073 91.6835 47.9137 103.737 47.9137C127.847 47.9137 151.764 46.6869 172.574 41.8302C193.386 36.9732 211.038 28.4986 222.683 14.0457C241.38 -9.15869 249.619 -41.9885 252.297 -73.6612C254.975 -105.323 252.091 -135.753 248.607 -154.087L249.589 -154.274C253.088 -135.86 255.98 -105.339 253.294 -73.5769ZM229.81 22.7538C248.691 -0.678894 256.956 -33.7452 259.642 -65.4962C262.328 -97.2583 259.436 -127.78 255.937 -146.193L254.955 -146.007C258.438 -127.672 261.323 -97.2422 258.645 -65.5805C255.967 -33.9078 247.728 -1.078 229.031 22.1264C217.386 36.5793 199.734 45.0539 178.922 49.9109C158.111 54.7676 134.195 55.9944 110.084 55.9944C98.0312 55.9944 85.9372 55.688 74.1637 55.3768L72.5719 55.3347C61.3604 55.0378 50.4547 54.749 40.1814 54.7318C18.6833 54.6957 -0.125877 55.8463 -13.2323 60.6424C-34.2739 68.3423 -45.032 87.0492 -49.9501 107.183C-54.8684 127.318 -53.9752 148.976 -51.6395 162.781L-50.6535 162.614C-52.9727 148.907 -53.8569 127.391 -48.9786 107.42C-44.1002 87.449 -33.4878 69.1194 -12.8886 61.5815C0.0303879 56.8539 18.6725 55.6957 40.1797 55.7318C50.4409 55.749 61.3358 56.0375 72.5521 56.3345L74.1373 56.3765C85.9097 56.6876 98.0162 56.9944 110.084 56.9944C134.216 56.9944 158.224 55.7681 179.149 50.8847C200.073 46.0016 217.969 37.4491 229.81 22.7538ZM265.989 -57.4155C263.304 -25.6645 255.039 7.40179 236.157 30.8345C224.317 45.5298 206.421 54.0823 185.497 58.9654C164.572 63.8488 140.563 65.0751 116.432 65.0751C104.364 65.0751 92.2574 64.7682 80.485 64.4572L78.8998 64.4152C67.6835 64.1182 56.7885 63.8297 46.5274 63.8125C25.0201 63.7764 6.37807 64.9346 -6.54096 69.6622C-27.1401 77.2001 -37.7525 95.5297 -42.631 115.501C-47.5092 135.472 -46.625 156.987 -44.3058 170.695L-45.2918 170.862C-47.6275 157.057 -48.5207 135.398 -43.6024 115.264C-38.6843 95.1299 -27.9262 76.4229 -6.88461 68.7231C6.2218 63.9269 25.031 62.7764 46.5291 62.8125C56.8024 62.8297 67.7081 63.1185 78.9196 63.4153L80.5114 63.4575C92.2849 63.7686 104.379 64.0751 116.432 64.0751C140.543 64.0751 164.459 62.8483 185.27 57.9916C206.082 53.1346 223.733 44.66 235.379 30.2071C254.076 7.00269 262.314 -25.8271 264.993 -57.4998C267.671 -89.1615 264.786 -119.591 261.302 -137.926L262.285 -138.113C265.783 -119.699 268.675 -89.1776 265.989 -57.4155ZM242.505 38.9152C261.386 15.4825 269.652 -17.5838 272.337 -49.3348C275.023 -81.0969 272.131 -111.618 268.632 -130.032L267.65 -129.845C271.134 -111.511 274.018 -81.0808 271.341 -49.4191C268.662 -17.7464 260.424 15.0834 241.726 38.2878C230.081 52.7407 212.429 61.2153 191.618 66.0723C170.807 70.929 146.89 72.1558 122.78 72.1558C110.727 72.1558 98.6326 71.8493 86.8591 71.5382L85.2673 71.4961H85.2658H85.2643H85.2627H85.2612H85.2597H85.2582H85.2567H85.2552H85.2537H85.2522H85.2507H85.2491H85.2477C74.0431 71.1992 63.1441 70.9104 52.8768 70.8932C31.3787 70.8571 12.5695 72.0077 -0.536919 76.8038C-21.5785 84.5036 -32.3366 103.211 -37.2547 123.344C-42.173 143.479 -41.2799 165.137 -38.9441 178.942L-37.9581 178.776C-40.2773 165.068 -41.1615 143.552 -36.2833 123.582C-31.4048 103.61 -20.7924 85.2809 -0.193268 77.7429C12.7258 73.0153 31.3678 71.8571 52.8751 71.8932C63.1362 71.9104 74.0312 72.1989 85.2475 72.4959L86.8327 72.5378C98.6051 72.849 110.712 73.1558 122.78 73.1558C146.911 73.1558 170.92 71.9295 191.845 67.0461C212.769 62.163 230.664 53.6105 242.505 38.9152ZM278.685 -41.2542C275.999 -9.5032 267.734 23.563 248.853 46.9958C237.012 61.691 219.117 70.2435 198.193 75.1267C177.267 80.01 153.259 81.2364 129.127 81.2364C117.059 81.2364 104.953 80.9295 93.1804 80.6184L91.5952 80.5764C80.3789 80.2794 69.4839 79.991 59.2228 79.9737C37.7155 79.9377 19.0735 81.0959 6.15442 85.8234C-14.4447 93.3614 -25.0571 111.691 -29.9356 131.662C-34.8138 151.633 -33.9296 173.149 -31.6104 186.856L-32.5964 187.023C-34.9322 173.218 -35.8253 151.56 -30.907 131.425C-25.9889 111.291 -15.2308 92.5842 5.81077 84.8843C18.9172 80.0882 37.7263 78.9377 59.2245 78.9738C69.4913 78.991 80.3897 79.2798 91.5937 79.5766H91.5954H91.5968H91.5983H91.5999H91.6014H91.6029H91.6044H91.6059H91.6074H91.6089H91.6104H91.6119H91.6134H91.615L93.2068 79.6187C104.98 79.9299 117.074 80.2364 129.127 80.2364C153.238 80.2364 177.154 79.0096 197.965 74.1528C218.777 69.2959 236.429 60.8212 248.074 46.3683C266.771 23.1639 275.01 -9.66583 277.688 -41.3385C280.366 -73.0002 277.481 -103.43 273.998 -121.765L274.98 -121.951C278.479 -103.538 281.371 -73.0163 278.685 -41.2542ZM255.201 55.0764C274.082 31.6437 282.347 -1.42252 285.032 -33.1736C287.718 -64.9356 284.827 -95.4571 281.328 -113.871L280.345 -113.684C283.829 -95.3495 286.714 -64.9195 284.036 -33.2578C281.357 -1.58514 273.119 31.2446 254.422 54.449C242.776 68.9019 225.125 77.3766 204.313 82.2335C183.502 87.0903 159.586 88.317 135.475 88.317C123.422 88.317 111.328 88.0106 99.5545 87.6994L97.9626 87.6573H97.9611H97.9596H97.9581H97.9566H97.9551H97.9536H97.9521H97.9506H97.9491H97.9475H97.946H97.9445H97.9431H97.9414H97.9398C86.7363 87.3604 75.8385 87.0717 65.5722 87.0544C44.0741 87.0184 25.2649 88.1689 12.1585 92.965C-8.8831 100.665 -19.6412 119.372 -24.5593 139.506C-29.4777 159.64 -28.5845 181.298 -26.2487 195.104L-25.2627 194.937C-27.582 181.229 -28.4661 159.713 -23.5879 139.743C-18.7094 119.772 -8.09705 101.442 12.5021 93.9041C25.4211 89.1766 44.0632 88.0183 65.5705 88.0544C75.8316 88.0717 86.7266 88.3601 97.9428 88.6571L99.5281 88.6991C111.3 89.0102 123.407 89.317 135.475 89.317C159.607 89.317 183.615 88.0907 204.54 83.2074C225.464 78.3242 243.36 69.7717 255.201 55.0764ZM291.38 -25.0929C288.695 6.65817 280.429 39.7244 261.548 63.1571C249.707 77.8524 231.812 86.4049 210.888 91.2881C189.963 96.1714 165.954 97.3977 141.823 97.3977C129.755 97.3977 117.648 97.0909 105.876 96.7798L104.291 96.7379C93.0743 96.4408 82.1793 96.1523 71.9182 96.1351C50.4109 96.0991 31.7688 97.2573 18.8498 101.985C-1.74934 109.523 -12.3617 127.852 -17.2402 147.824C-22.1184 167.794 -21.2343 189.31 -18.915 203.018L-19.901 203.184C-22.2368 189.379 -23.13 167.721 -18.2116 147.586C-13.2935 127.453 -2.5354 108.746 18.5062 101.046C31.6126 96.2496 50.4218 95.0991 71.9199 95.1351C82.1857 95.1523 93.083 95.4411 104.286 95.738H104.288H104.289H104.291H104.292H104.294H104.296H104.297H104.299H104.3H104.302H104.303H104.304H104.306H104.307H104.309H104.31L105.902 95.7802C117.676 96.0913 129.77 96.3977 141.823 96.3977C165.934 96.3977 189.85 95.171 210.661 90.3142C231.472 85.4573 249.124 76.9826 260.77 62.5297C279.467 39.3253 287.705 6.49556 290.384 -25.1771C293.061 -56.8388 290.177 -87.2688 286.693 -105.603L287.676 -105.79C291.174 -87.3764 294.066 -56.8549 291.38 -25.0929ZM267.896 71.2378C286.777 47.8051 295.042 14.7389 297.727 -17.0122C300.414 -48.7742 297.522 -79.2957 294.023 -97.7092L293.041 -97.5225C296.524 -79.1881 299.409 -48.7581 296.731 -17.0965C294.052 14.5762 285.814 47.406 267.117 70.6104C255.471 85.0633 237.82 93.538 217.008 98.3949C196.197 103.252 172.281 104.478 148.17 104.478C136.117 104.478 124.023 104.172 112.25 103.861L110.658 103.819H110.656H110.655H110.653H110.652H110.65H110.649H110.647H110.646H110.644H110.643H110.641H110.64H110.638H110.637H110.635H110.633H110.632C99.4293 103.522 88.5326 103.233 78.2673 103.216C56.7692 103.18 37.96 104.33 24.8536 109.126C3.81203 116.826 -6.94608 135.533 -11.8642 155.667C-16.7825 175.802 -15.8894 197.46 -13.5536 211.265L-12.5676 211.098C-14.8868 197.391 -15.771 175.875 -10.8928 155.904C-6.01431 135.933 4.59808 117.603 25.1972 110.065C38.1163 105.338 56.7583 104.18 78.2656 104.216C88.5267 104.233 99.4217 104.522 110.638 104.819L112.223 104.86C123.996 105.172 136.102 105.478 148.17 105.478C172.302 105.478 196.31 104.252 217.235 99.3687C238.159 94.4856 256.055 85.9331 267.896 71.2378ZM304.075 -8.93147C301.39 22.8196 293.124 55.8858 274.243 79.3185C262.402 94.0138 244.507 102.566 223.583 107.449C202.658 112.333 178.649 113.559 154.518 113.559C142.45 113.559 130.343 113.252 118.571 112.941L116.986 112.899L116.983 112.899C105.767 112.602 94.8735 112.314 84.6133 112.297C63.106 112.26 44.464 113.419 31.5449 118.146C10.9458 125.684 0.333374 144.014 -4.54507 163.985C-9.4233 183.956 -8.53914 205.471 -6.21992 219.179L-7.20591 219.346C-9.54166 205.541 -10.4348 183.882 -5.5165 163.748C-0.598373 143.614 10.1597 124.907 31.2013 117.207C44.3077 112.411 63.1169 111.26 84.615 111.297C94.8798 111.314 105.776 111.603 116.978 111.899H116.979H116.981H116.983H116.984H116.986H116.987H116.989H116.99H116.992H116.993H116.995H116.996H116.998H116.999H117.001H117.002H117.004H117.005L118.597 111.942C130.371 112.253 142.465 112.559 154.518 112.559C178.629 112.559 202.545 111.332 223.356 106.476C244.168 101.619 261.819 93.144 273.465 78.6911C292.162 55.4867 300.4 22.657 303.079 -9.01575C305.756 -40.6774 302.872 -71.1074 299.388 -89.4418L300.371 -89.6285C303.869 -71.215 306.761 -40.6935 304.075 -8.93147ZM280.591 87.3992C299.472 63.9665 307.738 30.9003 310.423 -0.850784C313.109 -32.6128 310.217 -63.1343 306.718 -81.5478L305.736 -81.3611C309.22 -63.0267 312.104 -32.5967 309.426 -0.935059C306.748 30.7376 298.509 63.5674 279.812 86.7718C268.167 101.225 250.515 109.699 229.703 114.556C208.893 119.413 184.976 120.64 160.866 120.64C148.812 120.64 136.718 120.333 124.945 120.022L123.353 119.98H123.352H123.35H123.349H123.347H123.346H123.344H123.343H123.341H123.34H123.338H123.337H123.335H123.334H123.332H123.33H123.329H123.327H123.325H123.324C112.123 119.683 101.227 119.394 90.9627 119.377C69.4646 119.341 50.6554 120.492 37.549 125.288C16.5074 132.988 5.74931 151.695 0.831184 171.828C-4.08715 191.963 -3.19397 213.621 -0.858223 227.426L0.127762 227.26C-2.19145 213.552 -3.07561 192.036 1.80262 172.066C6.68106 152.094 17.2935 133.765 37.8926 126.227C50.8116 121.499 69.4537 120.341 90.961 120.377C101.221 120.394 112.115 120.683 123.33 120.98L123.333 120.98L124.919 121.022C136.691 121.333 148.797 121.64 160.866 121.64C184.997 121.64 209.006 120.414 229.931 115.53C250.855 110.647 268.75 102.094 280.591 87.3992ZM316.771 7.2299C314.085 38.981 305.82 72.0472 286.939 95.4799C275.098 110.175 257.202 118.728 236.278 123.611C215.353 128.494 191.345 129.721 167.213 129.721C155.145 129.721 143.039 129.414 131.266 129.103L129.681 129.061L129.678 129.061C118.463 128.764 107.569 128.475 97.3087 128.458C75.8014 128.422 57.1593 129.58 44.2403 134.308C23.6412 141.846 13.0288 160.175 8.15031 180.146C3.27208 200.117 4.15624 221.633 6.47546 235.34L5.48947 235.507C3.15372 221.702 2.26054 200.044 7.17888 179.909C12.097 159.775 22.8551 141.068 43.8967 133.368C57.0031 128.572 75.8123 127.422 97.3104 127.458C107.574 127.475 118.469 127.764 129.67 128.061H129.672H129.673H129.675H129.676H129.678H129.68H129.681H129.683H129.684H129.686H129.688H129.689H129.691H129.692H129.694H129.695H129.696H129.698H129.699H129.701L131.293 128.103C143.066 128.414 155.16 128.721 167.213 128.721C191.324 128.721 215.24 127.494 236.051 122.637C256.863 117.78 274.514 109.305 286.16 94.8525C304.857 71.6481 313.096 38.8183 315.774 7.14563C318.452 -24.5161 315.567 -54.946 312.084 -73.2804L313.066 -73.4671C316.565 -55.0536 319.457 -24.5322 316.771 7.2299ZM293.286 103.561C312.167 80.1279 320.433 47.0616 323.118 15.3106C325.804 -16.4514 322.912 -46.9729 319.414 -65.3864L318.431 -65.1997C321.915 -46.8653 324.799 -16.4353 322.122 15.2263C319.443 46.899 311.205 79.7288 292.508 102.933C280.862 117.386 263.211 125.861 242.399 130.718C221.588 135.574 197.672 136.801 173.561 136.801C161.508 136.801 149.414 136.495 137.64 136.184L136.049 136.141C124.837 135.845 113.931 135.556 103.658 135.539C82.1599 135.503 63.3508 136.653 50.2444 141.449C29.2028 149.149 18.4447 167.856 13.5266 187.99C8.60823 208.125 9.50141 229.783 11.8372 243.588L12.8231 243.421C10.5039 229.714 9.61977 208.198 14.498 188.227C19.3764 168.256 29.9888 149.926 50.588 142.388C63.507 137.661 82.1491 136.503 103.656 136.539C113.917 136.556 124.812 136.844 136.029 137.141L137.614 137.183C149.386 137.494 161.493 137.801 173.561 137.801C197.692 137.801 221.701 136.575 242.626 131.692C263.55 126.808 281.446 118.256 293.286 103.561ZM329.466 23.3913C326.781 55.1423 318.515 88.2086 299.634 111.641C287.793 126.337 269.898 134.889 248.974 139.772C228.049 144.656 204.04 145.882 179.909 145.882C167.841 145.882 155.734 145.575 143.962 145.264L142.376 145.222C131.16 144.925 120.265 144.637 110.004 144.619C88.4968 144.583 69.8547 145.741 56.9357 150.469C36.3365 158.007 25.7241 176.336 20.8457 196.308C15.9675 216.278 16.8516 237.794 19.1708 251.502L18.1848 251.669C15.8491 237.863 14.9559 216.205 19.8743 196.071C24.7924 175.937 35.5505 157.23 56.592 149.53C69.6985 144.734 88.5076 143.583 110.006 143.619C120.279 143.637 131.185 143.925 142.396 144.222L143.988 144.264C155.762 144.575 167.856 144.882 179.909 144.882C204.019 144.882 227.936 143.655 248.746 138.798C269.558 133.941 287.21 125.467 298.855 111.014C317.552 87.8095 325.791 54.9797 328.469 23.307C331.147 -8.35466 328.263 -38.7846 324.779 -57.119L325.761 -57.3057C329.26 -38.8923 332.152 -8.37076 329.466 23.3913ZM305.982 119.722C324.863 96.2893 333.128 63.223 335.814 31.472C338.5 -0.29007 335.608 -30.8116 332.109 -49.225L331.127 -49.0383C334.61 -30.7039 337.495 -0.273972 334.817 31.3877C332.139 63.0604 323.9 95.8902 305.203 119.095C293.558 133.547 275.906 142.022 255.094 146.879C234.283 151.736 210.367 152.963 186.256 152.963C174.203 152.963 162.109 152.656 150.336 152.345L148.744 152.303C137.532 152.006 126.627 151.717 116.353 151.7C94.8553 151.664 76.0462 152.814 62.9397 157.611C41.8982 165.31 31.1401 184.017 26.222 204.151C21.3036 224.286 22.1968 245.944 24.5325 259.749L25.5185 259.582C23.1993 245.875 22.3152 224.359 27.1934 204.389C32.0718 184.417 42.6842 166.088 63.2834 158.55C76.2024 153.822 94.8445 152.664 116.352 152.7C126.613 152.717 137.508 153.006 148.724 153.303L150.309 153.345C162.082 153.656 174.188 153.963 186.256 153.963C210.388 153.963 234.396 152.736 255.321 147.853C276.245 142.97 294.141 134.417 305.982 119.722ZM342.161 39.5527C339.476 71.3037 331.211 104.37 312.329 127.803C300.489 142.498 282.593 151.05 261.669 155.934C240.744 160.817 216.735 162.043 192.604 162.043C180.536 162.043 168.429 161.736 156.657 161.425L155.072 161.383C143.856 161.086 132.961 160.798 122.699 160.781C101.192 160.745 82.5501 161.903 69.6311 166.63C49.0319 174.168 38.4195 192.498 33.5411 212.469C28.6628 232.44 29.547 253.956 31.8662 267.663L30.8802 267.83C28.5445 254.025 27.6513 232.367 32.5696 212.232C37.4878 192.098 48.2459 173.391 69.2874 165.691C82.3938 160.895 101.203 159.745 122.701 159.781C132.974 159.798 143.88 160.087 155.092 160.384L156.683 160.426C168.457 160.737 180.551 161.043 192.604 161.043C216.715 161.043 240.631 159.817 261.442 154.96C282.254 150.103 299.905 141.628 311.551 127.175C330.248 103.971 338.486 71.1411 341.165 39.4684C343.843 7.80673 340.958 -22.6232 337.474 -40.9576L338.457 -41.1443C341.956 -22.7309 344.847 7.79063 342.161 39.5527ZM318.677 135.883C337.558 112.451 345.824 79.3843 348.509 47.6332C351.195 15.8712 348.303 -14.6503 344.805 -33.0638L343.822 -32.8771C347.306 -14.5426 350.19 15.8873 347.513 47.549C344.834 79.2217 336.596 112.051 317.899 135.256C306.253 149.709 288.602 158.183 267.79 163.04C246.979 167.897 223.063 169.124 198.952 169.124C186.899 169.124 174.805 168.817 163.031 168.506L161.44 168.464C150.228 168.167 139.322 167.878 129.049 167.861C107.551 167.825 88.7418 168.976 75.6354 173.772C54.5938 181.472 43.8357 200.179 38.9176 220.312C33.9993 240.447 34.8924 262.105 37.2282 275.911L38.2142 275.744C35.8949 262.036 35.0108 240.52 39.889 220.55C44.7675 200.578 55.3799 182.249 75.979 174.711C88.8981 169.983 107.54 168.825 129.047 168.861C139.309 168.878 150.203 169.167 161.42 169.464L163.005 169.506C174.777 169.817 186.884 170.124 198.952 170.124C223.083 170.124 247.092 168.898 268.017 164.014C288.941 159.131 306.837 150.579 318.677 135.883ZM354.857 55.7139C352.172 87.465 343.906 120.531 325.025 143.964C313.184 158.659 295.289 167.212 274.365 172.095C253.44 176.978 229.431 178.205 205.3 178.205C193.232 178.205 181.125 177.898 169.353 177.587L167.767 177.545C156.551 177.248 145.656 176.959 135.395 176.942C113.888 176.906 95.2458 178.064 82.3267 182.792C61.7276 190.33 51.1152 208.659 46.2367 228.63C41.3585 248.601 42.2426 270.117 44.5619 283.824L43.5759 283.991C41.2401 270.186 40.347 248.528 45.2653 228.393C50.1834 208.259 60.9415 189.552 81.9831 181.853C95.0895 177.056 113.899 175.906 135.397 175.942C145.67 175.959 156.576 176.248 167.787 176.545L169.379 176.587C181.153 176.898 193.247 177.205 205.3 177.205C229.41 177.205 253.327 175.978 274.138 171.121C294.949 166.264 312.601 157.789 324.246 143.337C342.944 120.132 351.182 87.3024 353.861 55.6297C356.538 23.968 353.654 -6.46194 350.17 -24.7964L351.152 -24.983C354.651 -6.56961 357.543 23.9519 354.857 55.7139ZM331.372 152.045C350.253 128.612 358.519 95.5457 361.204 63.7946C363.89 32.0326 360.998 1.51108 357.5 -16.9024L356.517 -16.7157C360.001 1.61874 362.885 32.0487 360.208 63.7104C357.529 95.3831 349.291 128.213 330.594 151.417C318.948 165.87 301.297 174.345 280.485 179.202C259.674 184.058 235.758 185.285 211.647 185.285C199.594 185.285 187.5 184.979 175.726 184.668L174.134 184.625C162.923 184.329 152.017 184.04 141.744 184.023C120.246 183.987 101.437 185.137 88.3302 189.933C67.2887 197.633 56.5306 216.34 51.6125 236.474C46.6941 256.609 47.5873 278.267 49.923 292.072L50.909 291.905C48.5898 278.198 47.7057 256.682 52.5839 236.711C57.4623 216.74 68.0747 198.41 88.6739 190.872C101.593 186.145 120.235 184.987 141.742 185.023C152.003 185.04 162.898 185.328 174.115 185.625L175.7 185.667C187.472 185.978 199.579 186.285 211.647 186.285C235.778 186.285 259.787 185.059 280.712 180.176C301.636 175.292 319.531 166.74 331.372 152.045ZM367.552 71.8753C364.867 103.626 356.601 136.693 337.72 160.125C325.879 174.821 307.984 183.373 287.06 188.256C266.135 193.14 242.126 194.366 217.995 194.366C205.926 194.366 193.82 194.059 182.048 193.748L180.462 193.706C169.246 193.409 158.351 193.121 148.09 193.103C126.583 193.067 107.941 194.225 95.0216 198.953C74.4224 206.491 63.81 224.82 58.9316 244.792C54.0533 264.762 54.9375 286.278 57.2567 299.986L56.2707 300.153C53.935 286.347 53.0418 264.689 57.9601 244.555C62.8783 224.421 73.6364 205.714 94.6779 198.014C107.784 193.218 126.594 192.067 148.092 192.103C158.365 192.121 169.271 192.409 180.482 192.706L182.074 192.748C193.847 193.059 205.941 193.366 217.995 193.366C242.105 193.366 266.022 192.139 286.832 187.282C307.644 182.425 325.296 173.951 336.941 159.498C355.638 136.294 363.877 103.464 366.555 71.791C369.233 40.1294 366.349 9.69943 362.865 -8.63499L363.847 -8.82167C367.346 9.59177 370.238 40.1133 367.552 71.8753ZM344.068 168.206C362.949 144.773 371.214 111.707 373.9 79.956C376.586 48.194 373.694 17.6725 370.195 -0.740967L369.213 -0.554291C372.696 17.7801 375.581 48.2101 372.903 79.8718C370.224 111.544 361.986 144.374 343.289 167.579C331.643 182.031 313.992 190.506 293.18 195.363C272.369 200.22 248.453 201.447 224.342 201.447C212.289 201.447 200.195 201.14 188.422 200.829L186.83 200.787H186.828H186.827H186.826H186.825H186.823H186.822H186.82H186.819H186.817H186.816H186.815H186.814H186.812H186.811H186.809H186.808H186.807H186.806H186.804H186.803H186.801H186.8H186.798H186.797H186.796H186.795H186.793H186.792H186.79C175.593 200.49 164.701 200.201 154.439 200.184C132.941 200.148 114.132 201.298 101.026 206.095C79.9841 213.794 69.226 232.501 64.3078 252.635C59.3895 272.77 60.2827 294.428 62.6184 308.233L63.6044 308.066C61.2852 294.359 60.401 272.843 65.2793 252.873C70.1577 232.901 80.7701 214.572 101.369 207.034C114.288 202.306 132.93 201.148 154.438 201.184C164.699 201.201 175.594 201.49 186.81 201.787L188.395 201.829C200.168 202.14 212.274 202.447 224.342 202.447C248.474 202.447 272.482 201.22 293.407 196.337C314.331 191.454 332.227 182.901 344.068 168.206ZM380.247 88.0367C377.562 119.788 369.296 152.854 350.415 176.287C338.575 190.982 320.679 199.534 299.755 204.418C278.83 209.301 254.821 210.527 230.69 210.527C218.622 210.527 206.515 210.22 194.743 209.909L193.158 209.867C181.941 209.57 171.046 209.282 160.785 209.265C139.278 209.229 120.636 210.387 107.717 215.114C87.1178 222.652 76.5054 240.982 71.627 260.953C66.7487 280.924 67.6329 302.44 69.9521 316.147L68.9661 316.314C66.6304 302.509 65.7372 280.851 70.6555 260.716C75.5737 240.582 86.3318 221.875 107.373 214.175C120.48 209.379 139.289 208.229 160.787 208.265C171.058 208.282 181.961 208.571 193.169 208.868H193.169H193.169H193.17H193.171H193.172H193.174H193.175H193.176H193.177L194.769 208.91C206.543 209.221 218.637 209.527 230.69 209.527C254.801 209.527 278.717 208.301 299.528 203.444C320.34 198.587 337.991 190.112 349.637 175.659C368.334 152.455 376.572 119.625 379.251 87.9525C381.928 56.2908 379.044 25.8608 375.56 7.5264L376.543 7.33972C380.041 25.7532 382.933 56.2747 380.247 88.0367ZM356.763 184.367C375.644 160.935 383.91 127.868 386.595 96.1174C389.281 64.3553 386.389 33.8339 382.891 15.4204L381.908 15.6071C385.392 33.9415 388.276 64.3715 385.599 96.0331C382.92 127.706 374.682 160.536 355.985 183.74C344.339 198.193 326.688 206.668 305.876 211.524C285.065 216.381 261.149 217.608 237.038 217.608C224.985 217.608 212.891 217.302 201.117 216.99L199.525 216.948H199.524H199.523H199.521H199.52H199.519H199.517H199.516H199.514H199.513H199.512H199.511H199.509H199.508H199.506H199.505H199.503H199.502H199.501H199.5H199.498H199.497H199.495H199.494H199.493H199.492H199.49H199.489H199.487H199.486H199.484H199.483C188.287 216.651 177.395 216.363 167.135 216.345C145.637 216.309 126.828 217.46 113.721 222.256C92.6797 229.956 81.9216 248.663 77.0035 268.797C72.0851 288.931 72.9783 310.589 75.3141 324.395L76.3 324.228C73.9808 310.52 73.0967 289.004 77.9749 269.034C82.8534 249.063 93.4658 230.733 114.065 223.195C126.984 218.468 145.626 217.309 167.133 217.345C177.394 217.363 188.289 217.651 199.506 217.948L201.091 217.99C212.863 218.301 224.97 218.608 237.038 218.608C261.169 218.608 285.178 217.382 306.103 212.498C327.027 207.615 344.922 199.063 356.763 184.367ZM392.943 104.198C390.258 135.949 381.992 169.015 363.111 192.448C351.27 207.143 333.375 215.696 312.451 220.579C291.526 225.462 267.517 226.689 243.385 226.689C231.317 226.689 219.211 226.382 207.439 226.071L205.853 226.029L205.85 226.029C194.635 225.732 183.741 225.443 173.481 225.426C151.974 225.39 133.332 226.548 120.413 231.276C99.8134 238.814 89.201 257.143 84.3226 277.115C79.4444 297.085 80.3285 318.601 82.6477 332.309L81.6618 332.475C79.326 318.67 78.4328 297.012 83.3512 276.877C88.2693 256.744 99.0274 238.037 120.069 230.337C133.175 225.541 151.985 224.39 173.483 224.426C183.743 224.443 194.634 224.732 205.83 225.029H205.831H205.832H205.833H205.835H205.836H205.838H205.839H205.841H205.842H205.843H205.845H205.846H205.848H205.849H205.85H205.851H205.853H205.854H205.855H205.857H205.858H205.86H205.861H205.862H205.864H205.865H205.867H205.868H205.869H205.87H205.872H205.873L207.465 225.071C219.238 225.382 231.332 225.689 243.385 225.689C267.496 225.689 291.413 224.462 312.223 219.605C333.035 214.748 350.687 206.274 362.332 191.821C381.029 168.616 389.268 135.787 391.946 104.114C394.624 72.4521 391.74 42.0222 388.256 23.6878L389.238 23.5011C392.737 41.9146 395.629 72.4361 392.943 104.198ZM369.459 200.529C388.34 177.096 396.605 144.03 399.291 112.279C401.977 80.5168 399.085 49.9952 395.586 31.5818L394.604 31.7685C398.087 50.1029 400.972 80.5328 398.294 112.195C395.615 143.867 387.377 176.697 368.68 199.901C357.034 214.354 339.383 222.829 318.571 227.686C297.76 232.543 273.844 233.769 249.733 233.769C237.68 233.769 225.586 233.463 213.813 233.152L212.221 233.11H212.219H212.218H212.217H212.216H212.214H212.213H212.211H212.21H212.208H212.207H212.206H212.205H212.203H212.202H212.2H212.199H212.198H212.197H212.195H212.194H212.192H212.191H212.189H212.188H212.187H212.186H212.184H212.183H212.181H212.18H212.179H212.178H212.176C200.98 232.813 190.09 232.524 179.83 232.507C158.332 232.471 139.523 233.621 126.417 238.417C105.375 246.117 94.617 264.824 89.6989 284.958C84.7805 305.093 85.6737 326.751 88.0094 340.556L88.9954 340.389C86.6762 326.682 85.7921 305.166 90.6703 285.195C95.5487 265.224 106.161 246.894 126.76 239.356C139.679 234.629 158.321 233.471 179.829 233.507C190.089 233.524 200.983 233.812 212.198 234.109L212.201 234.109L213.786 234.151C225.559 234.463 237.665 234.769 249.733 234.769C273.865 234.769 297.873 233.543 318.798 228.66C339.722 223.777 357.618 215.224 369.459 200.529ZM405.638 120.359C402.953 152.111 394.687 185.177 375.806 208.609C363.966 223.305 346.07 231.857 325.146 236.74C304.221 241.624 280.212 242.85 256.081 242.85C244.013 242.85 231.906 242.543 220.134 242.232L218.549 242.19L218.546 242.19C207.33 241.893 196.437 241.605 186.176 241.587C164.669 241.551 146.027 242.71 133.108 247.437C112.509 254.975 101.896 273.305 97.018 293.276C92.1398 313.247 93.0239 334.762 95.3431 348.47L94.3571 348.637C92.0214 334.832 91.1282 313.173 96.0466 293.039C100.965 272.905 111.723 254.198 132.764 246.498C145.871 241.702 164.68 240.551 186.178 240.587C196.443 240.605 207.339 240.893 218.541 241.19H218.541H218.541H218.542H218.543H218.544H218.545H218.546H218.547H218.549H218.55H218.551H218.553H218.554H218.556H218.558H218.559H218.561H218.562H218.564H218.565H218.567H218.569L220.16 241.232C231.934 241.544 244.028 241.85 256.081 241.85C280.192 241.85 304.108 240.623 324.919 235.767C345.731 230.91 363.382 222.435 375.028 207.982C393.725 184.778 401.963 151.948 404.642 120.275C407.319 88.6135 404.435 58.1836 400.951 39.8492L401.934 39.6625C405.432 58.0759 408.324 88.5974 405.638 120.359ZM382.154 216.69C401.035 193.257 409.301 160.191 411.986 128.44C414.672 96.6781 411.78 66.1566 408.281 47.7432L407.299 47.9298C410.783 66.2643 413.667 96.6942 410.989 128.356C408.311 160.029 400.073 192.858 381.375 216.063C369.73 230.516 352.078 238.99 331.266 243.847C310.456 248.704 286.539 249.931 262.429 249.931C250.376 249.931 238.282 249.624 226.508 249.313L224.916 249.271H224.915H224.913H224.912H224.911H224.91H224.909H224.908H224.908H224.908C213.699 248.974 202.796 248.685 192.526 248.668C171.028 248.632 152.218 249.783 139.112 254.579C118.07 262.279 107.312 280.986 102.394 301.119C97.4759 321.254 98.3691 342.912 100.705 356.717L101.691 356.551C99.3716 342.843 98.4874 321.327 103.366 301.357C108.244 281.385 118.857 263.056 139.456 255.518C152.375 250.79 171.017 249.632 192.524 249.668C202.784 249.685 213.678 249.974 224.893 250.271L224.896 250.271L226.482 250.313C238.254 250.624 250.361 250.931 262.429 250.931C286.56 250.931 310.569 249.704 331.494 244.821C352.418 239.938 370.313 231.385 382.154 216.69ZM418.334 136.521C415.648 168.272 407.383 201.338 388.502 224.771C376.661 239.466 358.765 248.019 337.841 252.902C316.916 257.785 292.908 259.011 268.776 259.011C256.708 259.011 244.602 258.705 232.829 258.393L231.244 258.351L231.241 258.351C220.026 258.054 209.132 257.766 198.872 257.749C177.364 257.713 158.722 258.871 145.803 263.598C125.204 271.136 114.592 289.466 109.713 309.437C104.835 329.408 105.719 350.924 108.038 364.631L107.053 364.798C104.717 350.993 103.824 329.335 108.742 309.2C113.66 289.066 124.418 270.359 145.46 262.659C158.566 257.863 177.375 256.713 198.873 256.749C209.138 256.766 220.035 257.055 231.236 257.352H231.237H231.237H231.237H231.238H231.24H231.241H231.241H231.243H231.244H231.245H231.247H231.248H231.25H231.251H231.253H231.255H231.256H231.258H231.259H231.261H231.262H231.264L232.856 257.394C244.629 257.705 256.723 258.011 268.776 258.011C292.887 258.011 316.803 256.785 337.614 251.928C358.426 247.071 376.078 238.596 387.723 224.143C406.42 200.939 414.659 168.109 417.337 136.436C420.015 104.775 417.13 74.3448 413.647 56.0104L414.629 55.8238C418.128 74.2372 421.02 104.759 418.334 136.521ZM394.849 232.851C413.73 209.419 421.996 176.352 424.681 144.601C427.367 112.839 424.475 82.3179 420.977 63.9044L419.994 64.0911C423.478 82.4255 426.362 112.855 423.685 144.517C421.006 176.19 412.768 209.02 394.07 232.224C382.425 246.677 364.773 255.152 343.962 260.009C323.151 264.865 299.234 266.092 275.124 266.092C263.071 266.092 250.977 265.786 239.203 265.474L237.611 265.432H237.61H237.608H237.607H237.606H237.605H237.603H237.602H237.6H237.599H237.598H237.597H237.595H237.594H237.592H237.591H237.589H237.588H237.587H237.586H237.584H237.583H237.581H237.58H237.579H237.578H237.576H237.575H237.573H237.572H237.57H237.569H237.568H237.567H237.565H237.564H237.562H237.561C226.367 265.135 215.479 264.847 205.221 264.829C183.723 264.793 164.914 265.944 151.807 270.74C130.766 278.44 120.007 297.147 115.089 317.281C110.171 337.415 111.064 359.073 113.4 372.879L114.386 372.712C112.067 359.004 111.183 337.488 116.061 317.518C120.939 297.547 131.552 279.217 152.151 271.679C165.07 266.952 183.712 265.793 205.219 265.829C215.479 265.847 226.373 266.135 237.589 266.432L237.592 266.432L239.177 266.474C250.949 266.785 263.056 267.092 275.124 267.092C299.255 267.092 323.264 265.866 344.189 260.982C365.113 256.099 383.008 247.547 394.849 232.851ZM431.029 152.682C428.344 184.433 420.078 217.499 401.197 240.932C389.356 255.627 371.461 264.18 350.537 269.063C329.612 273.946 305.603 275.173 281.471 275.173C269.403 275.173 257.297 274.866 245.524 274.555L243.939 274.513L243.936 274.513C232.721 274.216 221.827 273.927 211.567 273.91C190.06 273.874 171.418 275.032 158.498 279.76C137.899 287.298 127.287 305.627 122.408 325.599C117.53 345.569 118.414 367.085 120.734 380.792L119.748 380.959C117.412 367.154 116.519 345.496 121.437 325.361C126.355 305.227 137.113 286.52 158.155 278.821C171.261 274.024 190.07 272.874 211.569 272.91C221.833 272.927 232.73 273.216 243.931 273.513H243.932H243.932H243.933H243.934H243.935H243.936H243.937H243.938H243.939H243.94H243.942H243.943H243.945H243.947H243.948H243.95H243.951H243.953H243.954H243.956H243.957H243.959L245.551 273.555C257.324 273.866 269.418 274.173 281.471 274.173C305.582 274.173 329.498 272.946 350.309 268.089C371.121 263.232 388.773 254.757 400.418 240.305C419.115 217.1 427.354 184.27 430.032 152.598C432.71 120.936 429.826 90.5061 426.342 72.1717L427.324 71.985C430.823 90.3984 433.715 120.92 431.029 152.682ZM407.545 249.013C426.426 225.58 434.691 192.514 437.376 160.763C440.063 129.001 437.171 98.4792 433.672 80.0657L432.689 80.2524C436.173 98.5868 439.058 129.017 436.38 160.678C433.701 192.351 425.463 225.181 406.766 248.385C395.12 262.838 377.469 271.313 356.657 276.17C335.846 281.027 311.93 282.253 287.819 282.253C275.766 282.253 263.672 281.947 251.899 281.636L250.307 281.594C239.095 281.297 228.19 281.008 217.916 280.991C196.418 280.955 177.609 282.105 164.503 286.901C143.461 294.601 132.703 313.308 127.785 333.442C122.866 353.577 123.76 375.235 126.095 389.04L127.081 388.873C124.762 375.166 123.878 353.65 128.756 333.679C133.635 313.708 144.247 295.378 164.846 287.84C177.765 283.113 196.407 281.955 217.915 281.991C228.176 282.008 239.071 282.296 250.287 282.593L251.872 282.635C263.645 282.946 275.751 283.253 287.819 283.253C311.951 283.253 335.959 282.027 356.884 277.144C377.808 272.26 395.704 263.708 407.545 249.013ZM443.724 168.843C441.039 200.594 432.773 233.661 413.892 257.093C402.051 271.789 384.156 280.341 363.232 285.224C342.307 290.108 318.298 291.334 294.167 291.334C282.099 291.334 269.992 291.027 258.22 290.716L256.635 290.674C245.418 290.377 234.523 290.089 224.262 290.071C202.755 290.035 184.113 291.194 171.194 295.921C150.595 303.459 139.982 321.789 135.104 341.76C130.226 361.73 131.11 383.246 133.429 396.954L132.443 397.121C130.107 383.315 129.214 361.657 134.132 341.523C139.051 321.389 149.809 302.682 170.85 294.982C183.957 290.186 202.766 289.035 224.264 289.071C234.537 289.089 245.443 289.377 256.654 289.674L258.246 289.716C270.02 290.028 282.114 290.334 294.167 290.334C318.278 290.334 342.194 289.107 363.005 284.25C383.817 279.394 401.468 270.919 413.114 256.466C431.811 233.262 440.049 200.432 442.728 168.759C445.405 137.097 442.521 106.668 439.037 88.3331L440.02 88.1464C443.518 106.56 446.41 137.081 443.724 168.843ZM420.24 265.174C439.121 241.741 447.387 208.675 450.072 176.924C452.758 145.162 449.866 114.641 446.367 96.2271L445.385 96.4138C448.869 114.748 451.753 145.178 449.075 176.84C446.397 208.513 438.158 241.342 419.461 264.547C407.816 279 390.164 287.474 369.352 292.331C348.542 297.188 324.625 298.415 300.514 298.415C288.461 298.415 276.367 298.108 264.594 297.797L263.002 297.755C251.791 297.458 240.885 297.169 230.612 297.152C209.113 297.116 190.304 298.267 177.198 303.063C156.156 310.763 145.398 329.469 140.48 349.603C135.562 369.738 136.455 391.396 138.791 405.201L139.777 405.035C137.457 391.327 136.573 369.811 141.452 349.841C146.33 329.869 156.942 311.54 177.542 304.002C190.461 299.274 209.103 298.116 230.61 298.152C240.871 298.169 251.766 298.458 262.982 298.755L264.568 298.797C276.34 299.108 288.446 299.415 300.514 299.415C324.646 299.415 348.655 298.188 369.58 293.305C390.504 288.422 408.399 279.869 420.24 265.174ZM456.419 185.005C453.734 216.756 445.469 249.822 426.588 273.255C414.747 287.95 396.851 296.503 375.927 301.386C355.002 306.269 330.994 307.495 306.862 307.495C294.794 307.495 282.688 307.189 270.915 306.877L269.33 306.835C258.114 306.538 247.219 306.25 236.958 306.233C215.45 306.197 196.808 307.355 183.889 312.082C163.29 319.62 152.678 337.95 147.799 357.921C142.921 377.892 143.805 399.408 146.124 413.115L145.138 413.282C142.803 399.477 141.909 377.819 146.828 357.684C151.746 337.55 162.504 318.843 183.546 311.143C196.652 306.347 215.461 305.197 236.959 305.233C247.233 305.25 258.138 305.539 269.35 305.836L270.942 305.878C282.715 306.189 294.809 306.495 306.862 306.495C330.973 306.495 354.889 305.269 375.7 300.412C396.512 295.555 414.163 287.08 425.809 272.627C444.506 249.423 452.745 216.593 455.423 184.921C458.101 153.259 455.216 122.829 451.733 104.494L452.715 104.308C456.214 122.721 459.106 153.243 456.419 185.005ZM432.935 280.181C451.816 256.748 460.082 223.682 462.767 191.931C465.453 160.169 462.561 129.647 459.063 111.234L458.08 111.421C461.564 129.755 464.448 160.185 461.771 191.847C459.092 223.519 450.854 256.349 432.157 279.554C420.511 294.007 402.86 302.481 382.048 307.338C361.237 312.195 337.321 313.422 313.21 313.422C301.157 313.422 289.063 313.115 277.289 312.804L275.697 312.762C264.486 312.465 253.58 312.176 243.307 312.159C221.809 312.123 203 313.273 189.893 318.07C168.852 325.77 158.094 344.476 153.176 364.61C148.257 384.745 149.15 406.403 151.486 420.208L152.472 420.042C150.153 406.334 149.269 384.818 154.147 364.848C159.025 344.876 169.638 326.547 190.237 319.009C203.156 314.281 221.798 313.123 243.305 313.159C253.566 313.176 264.461 313.465 275.678 313.762L277.263 313.804C289.035 314.115 301.142 314.422 313.21 314.422C337.341 314.422 361.35 313.195 382.275 308.312C403.199 303.429 421.094 294.876 432.935 280.181ZM440.58 285.953C459.461 262.52 467.727 229.454 470.412 197.703C473.098 165.941 470.206 135.419 466.707 117.006L465.725 117.193C469.209 135.527 472.093 165.957 469.415 197.619C466.737 229.291 458.498 262.121 439.801 285.325C428.156 299.778 410.504 308.253 389.692 313.11C368.882 317.967 344.965 319.193 320.855 319.193C308.801 319.193 296.707 318.887 284.934 318.576L283.342 318.534C272.131 318.237 261.225 317.948 250.952 317.931C229.454 317.895 210.644 319.045 197.538 323.841C176.496 331.541 165.738 350.248 160.82 370.382C155.902 390.517 156.795 412.175 159.131 425.98L160.117 425.813C157.798 412.106 156.913 390.59 161.792 370.619C166.67 350.648 177.282 332.319 197.882 324.781C210.801 320.053 229.443 318.895 250.95 318.931C261.211 318.948 272.106 319.237 283.322 319.534L284.908 319.576C296.68 319.887 308.786 320.193 320.855 320.193C344.986 320.193 368.995 318.967 389.92 314.084C410.844 309.201 428.739 300.648 440.58 285.953Z" fill="url(#paint1_linear_195_2371)"/>
</g>
</g>
<defs>
<linearGradient id="paint0_linear_195_2371" x1="94" y1="-61.5" x2="188" y2="211.5" gradientUnits="userSpaceOnUse">
<stop stop-color="#F7C11F"/>
<stop offset="1" stop-color="#F1591D"/>
</linearGradient>
<linearGradient id="paint1_linear_195_2371" x1="250.5" y1="31" x2="11.5" y2="311" gradientUnits="userSpaceOnUse">
<stop stop-color="white"/>
<stop offset="1" stop-color="white" stop-opacity="0"/>
</linearGradient>
</defs>
</svg>
