<svg width="35" height="35" viewBox="0 0 35 35" fill="none" xmlns="http://www.w3.org/2000/svg">
<path d="M17.0844 19.6875H17.3687V19.8187H17.5V19.6875H18.1781V19.8187C18.1975 19.8187 18.2168 19.8187 18.2367 19.8187C19.383 19.8182 20.5336 19.8179 21.6711 19.8176C21.8087 19.8176 21.9468 19.8176 22.0846 19.8175C22.1119 19.8175 22.1392 19.8175 22.1675 19.8175C22.6115 19.8174 23.0556 19.8173 23.4975 19.8171C23.9525 19.8169 24.4075 19.8167 24.8625 19.8167C25.1425 19.8167 25.4247 19.8166 25.7047 19.8164C25.8972 19.8163 26.0897 19.8162 26.2822 19.8163C26.3933 19.8163 26.5053 19.8163 26.6147 19.8161C26.7164 19.816 26.8181 19.816 26.9187 19.8161C26.9555 19.8161 26.9924 19.8161 27.0292 19.816C27.0793 19.8159 27.1292 19.816 27.1792 19.8161C27.207 19.8161 27.2348 19.816 27.2635 19.816C27.3341 19.8186 27.4004 19.8272 27.4697 19.8405V19.9718H27.601C27.6082 20.0079 27.6154 20.044 27.6229 20.0812C27.6662 20.0884 27.7095 20.0956 27.7541 20.103V20.2343H27.8854V20.4968H28.0166V20.6499H28.1479V20.7812H28.2791C28.2863 20.875 28.2936 20.9688 28.301 21.0655H28.4322V21.1968H28.5635C28.5707 21.2834 28.5779 21.37 28.5854 21.4593H28.6947C28.702 21.5026 28.7092 21.5459 28.7166 21.5905C28.7599 21.5978 28.8032 21.605 28.8479 21.6124V21.7437H28.9791V22.0062H29.1104C29.1176 22.0495 29.1248 22.0928 29.1322 22.1374C29.1683 22.1446 29.2044 22.1518 29.2416 22.1593V22.2905H29.3729C29.3801 22.3772 29.3873 22.4638 29.3947 22.553H29.526V22.7062H29.6572V22.8374H29.7885C29.7957 22.924 29.8029 23.0107 29.8104 23.0999H29.9197C29.9416 23.1218 29.9416 23.1218 29.9429 23.1887C29.9425 23.2099 29.942 23.2312 29.9416 23.253H30.0728V23.5155H30.2041V23.6468H30.3353C30.3425 23.7406 30.3498 23.8345 30.3572 23.9312H30.4884V24.2155H30.6197V24.478H30.4884V24.6093H29.9197V24.7405H20.2291V24.6093H19.9666C19.9594 24.566 19.9521 24.5227 19.9447 24.478C19.9086 24.4708 19.8725 24.4636 19.8353 24.4562C19.8281 24.3768 19.8209 24.2973 19.8134 24.2155H19.6822V24.0624H19.5509V23.9312H19.4197C19.4125 23.8445 19.4053 23.7579 19.3978 23.6687H19.2884C19.2666 23.6468 19.2666 23.6468 19.2653 23.5798C19.2657 23.5587 19.2662 23.5374 19.2666 23.5155H19.1354V23.3624H19.0041V23.0999H18.8729V22.9687H18.7416C18.7344 22.8748 18.7272 22.781 18.7197 22.6843H18.5885V22.553H18.4572V22.2905H18.326C18.3188 22.2472 18.3116 22.2039 18.3041 22.1593C18.2608 22.1521 18.2175 22.1448 18.1729 22.1374V22.0062H18.0416V21.7437H17.9104C17.9032 21.7003 17.8959 21.657 17.8885 21.6124C17.8345 21.6016 17.8345 21.6016 17.7791 21.5905V21.4593H17.6479V21.328H17.3416V21.4593H17.2104V21.5905H17.0791V21.7437H16.9479V21.8749H16.8166C16.8094 21.9615 16.8022 22.0482 16.7948 22.1374H16.6635V22.2905H16.5323V22.4218H16.401V22.5749H16.2698C16.2625 22.6615 16.2553 22.7482 16.2479 22.8374H16.1166V22.9687H16.0073C16 23.0553 15.9928 23.1419 15.9854 23.2312H15.8541V23.3843H15.7229V23.5155H15.5916C15.5844 23.6094 15.5772 23.7032 15.5698 23.7999H15.4385V24.0624H15.3073V24.1937H15.176C15.1765 24.2149 15.1769 24.2361 15.1774 24.258C15.176 24.3249 15.176 24.3249 15.1542 24.3468C15.1176 24.3477 15.0813 24.3477 15.0448 24.3468C15.0455 24.3733 15.0455 24.3733 15.0462 24.4002C15.0448 24.4562 15.0448 24.4562 15.023 24.478C14.9792 24.4789 14.9355 24.479 14.8917 24.478V24.6093H14.0824V24.7405H5.06986V24.6093H4.50111V24.478H4.36986V24.1937H4.50111C4.50086 24.1762 4.5006 24.1589 4.50034 24.1409C4.49838 23.9113 4.49838 23.9113 4.52309 23.7997H4.65434V23.6466H4.78559V23.5153H4.91684V23.2528H5.04809C5.04764 23.2316 5.04719 23.2104 5.04672 23.1885C5.04809 23.1216 5.04809 23.1216 5.06991 23.0997H5.20116V22.8372H5.33241V22.7059H5.46366V22.5528H5.59491C5.60213 22.4662 5.60935 22.3796 5.61678 22.2903H5.74803V22.1372H5.87928V22.0059H6.01053V21.7434H6.14178C6.14133 21.7222 6.14088 21.701 6.14042 21.6791C6.14178 21.6122 6.14178 21.6122 6.1636 21.5903H6.27298C6.2802 21.5037 6.28742 21.4171 6.29485 21.3278H6.4261V21.1966H6.55735V20.9341H6.6886V20.7809H6.84173V20.6497H6.97298V20.3872H7.10423V20.2341H7.23548V20.1028H7.3886V19.9716H7.51985V19.8403C7.61939 19.821 7.71323 19.8158 7.81517 19.8158C7.83923 19.8158 7.83923 19.8158 7.86395 19.8157C7.91776 19.8157 7.97179 19.8158 8.0256 19.8159C8.06454 19.8159 8.1037 19.8158 8.14264 19.8158C8.24982 19.8158 8.35701 19.8159 8.4642 19.816C8.5797 19.8161 8.69607 19.816 8.81201 19.816C9.01239 19.816 9.21232 19.8161 9.41357 19.8162C9.70232 19.8164 9.99326 19.8164 10.282 19.8165C10.7523 19.8165 11.2226 19.8167 11.6908 19.8169C12.1479 19.8171 12.6029 19.8172 13.0601 19.8173C13.0884 19.8173 13.1164 19.8173 13.1454 19.8173C13.2865 19.8174 13.4276 19.8174 13.5698 19.8174C14.7401 19.8176 15.9104 19.818 17.0917 19.8185V19.6873L17.0844 19.6875ZM8.46562 20.65V20.7812H8.05V20.9125H7.91875V21.0437H7.7875V21.1969H7.65625V21.3281H7.525C7.51778 21.4147 7.51056 21.5014 7.50312 21.5906H7.37187V21.7437H7.24062V21.875H7.10937V22.0281H6.97812C6.97091 22.1075 6.96369 22.1869 6.95625 22.2687H6.84687C6.81712 22.2935 6.81713 22.2935 6.82369 22.3576C6.82414 22.3788 6.82459 22.4 6.82505 22.4219H6.6938V22.6844H6.56255V22.8375H6.4313V22.9687H6.27818V23.1C6.26059 23.0995 6.24296 23.0991 6.2248 23.0986C6.17012 23.0935 6.17012 23.0935 6.14693 23.1218C6.14535 23.1623 6.1451 23.203 6.14556 23.2434C6.14576 23.2655 6.14596 23.2876 6.14616 23.3106C6.14641 23.3277 6.14667 23.3447 6.14693 23.3624H6.01568V23.5156H5.88443V23.6468C5.97652 23.6643 6.06337 23.6713 6.15787 23.6711C6.18543 23.6711 6.21299 23.6711 6.24143 23.6711C6.27118 23.671 6.30093 23.6709 6.33068 23.6708C6.3613 23.6707 6.39215 23.6707 6.42277 23.6707C6.50327 23.6706 6.58377 23.6704 6.6634 23.6701C6.74565 23.6699 6.8279 23.6698 6.91059 23.6697C7.0718 23.6695 7.23215 23.6691 7.39402 23.6686V23.778C7.91465 23.7809 8.43527 23.7838 8.9559 23.7865C9.19871 23.7878 9.43934 23.7892 9.68215 23.7905C10.6403 23.7959 11.5962 23.8009 12.5478 23.8018C12.6265 23.8019 12.7055 23.802 12.784 23.8021C13.2609 23.8031 13.7356 23.7965 14.2125 23.7781V23.6687C14.2337 23.6692 14.2549 23.6696 14.2768 23.6701C14.3411 23.6765 14.3411 23.6765 14.3656 23.6469C14.3665 23.6031 14.3665 23.5594 14.3656 23.5156H14.4968V23.3844H14.6281V23.2531H14.7593V23.1H14.8906C14.8978 23.0134 14.905 22.9268 14.9125 22.8375H15.0437V22.7063C15.0613 22.7067 15.0789 22.7072 15.0971 22.7076C15.1518 22.7127 15.1518 22.7127 15.175 22.6844C15.1759 22.6407 15.1759 22.5969 15.175 22.5532H15.3062V22.2907H15.4375V22.1594C15.4587 22.1599 15.4799 22.1603 15.5018 22.1608C15.5661 22.1672 15.5661 22.1672 15.5906 22.1376C15.5915 22.0939 15.5915 22.0501 15.5906 22.0064H15.7218V21.7439H15.8531V21.4814H15.9843C16.0141 21.4567 16.0141 21.4567 16.0075 21.3926C16.0068 21.3608 16.0068 21.3608 16.0062 21.3282H16.1374V21.197H16.2687V20.9126H16.3999V20.7814H16.2687V20.6501H15.3062V20.7814H9.83741V20.6501H8.45928L8.46562 20.65ZM19.1406 20.65V20.7812H18.5937V21.0656H18.725V21.1969H18.8562C18.8635 21.2835 18.8707 21.3701 18.8781 21.4594C18.9142 21.4666 18.9503 21.4738 18.9875 21.4812C18.9947 21.5246 19.0019 21.5679 19.0094 21.6125H19.1406V21.875H19.2719V22.0062H19.4031C19.4027 22.0274 19.4022 22.0487 19.4018 22.0706C19.3953 22.1349 19.3953 22.1349 19.4249 22.1594H19.5343C19.5451 22.2893 19.5451 22.2893 19.5562 22.4219H19.6874V22.5531H19.8187V22.7062H19.9499V22.8375H20.0812C20.092 22.9674 20.092 22.9674 20.1031 23.1H20.2343V23.2531H20.3656V23.5156H20.5187V23.6469C20.7033 23.6654 20.8862 23.6716 21.0699 23.6701C21.0949 23.67 21.1198 23.6699 21.1454 23.6698C21.206 23.6695 21.2664 23.6691 21.327 23.6687V23.7781H27.3426V23.6687H28.4364V23.7781H28.6989V23.6687C28.7927 23.6615 28.8865 23.6543 28.9832 23.6468V23.5156H28.852C28.8524 23.4944 28.8529 23.4731 28.8533 23.4513C28.8598 23.3869 28.8598 23.3869 28.8302 23.3624H28.7208C28.7136 23.2758 28.7063 23.1892 28.6989 23.0999H28.5677V22.9687H28.4364V22.8156H28.3052V22.5531H28.1739V22.4218H28.0427C28.0354 22.328 28.0282 22.2341 28.0208 22.1374H27.8895V21.8749H27.7583V21.7437H27.627V21.5906H27.4958C27.4886 21.5039 27.4813 21.4173 27.4739 21.3281H27.3427V21.1749H27.2114C27.2042 21.0955 27.197 21.0161 27.1895 20.9343C27.0705 20.9235 27.0705 20.9235 26.9489 20.9124V20.7812H25.8333V20.6499H23.0989V20.7812H19.6864V20.6499H19.1395L19.1406 20.65Z" fill="#000002"/>
<path d="M16.3844 1.22281C16.4216 1.22275 16.4216 1.22275 16.4594 1.2227C16.5412 1.2226 16.6228 1.22266 16.7044 1.22274C16.7615 1.22272 16.8184 1.2227 16.8755 1.22267C16.9949 1.22263 17.1139 1.22269 17.2342 1.22279C17.3718 1.22291 17.5098 1.22287 17.6477 1.22275C17.7807 1.22264 17.9145 1.22265 18.0458 1.22272C18.102 1.22273 18.1582 1.22271 18.2147 1.22266C18.2936 1.22261 18.3726 1.22269 18.4509 1.22281C18.4853 1.22275 18.4853 1.22275 18.5205 1.22268C18.6738 1.22311 18.8245 1.23265 18.9777 1.24762V1.35699C19.3233 1.36782 19.3233 1.36782 19.6777 1.37887V1.51012H20.0933V1.64137H20.3777V1.77262C20.4037 1.77223 20.4037 1.77223 20.4304 1.77185C20.6601 1.76989 20.6601 1.76989 20.7716 1.7946V1.90397C20.8655 1.91119 20.9593 1.91841 21.056 1.92585V2.0571H21.3185V2.18835H21.581V2.3196C21.6022 2.31914 21.6234 2.31869 21.6453 2.31823C21.7123 2.3196 21.7123 2.3196 21.7341 2.34142V2.45079C21.8208 2.45801 21.9074 2.46523 21.9966 2.47267V2.60392H22.1498V2.73517H22.281V2.86642C22.3676 2.87363 22.4543 2.88085 22.5435 2.88829V3.01954H22.6748C22.682 3.05563 22.6892 3.09173 22.6966 3.12892C22.7399 3.13613 22.7833 3.14335 22.8279 3.15079V3.28204H22.9591V3.41329H23.0904V3.54454C23.1116 3.54409 23.1328 3.54364 23.1547 3.54317C23.2216 3.54454 23.2216 3.54454 23.2435 3.56636C23.2444 3.61011 23.2444 3.65386 23.2435 3.69761H23.3748V3.82886H23.506V3.96011H23.6373V4.11324H23.7685V4.24449H23.8998C23.907 4.33111 23.9142 4.41774 23.9216 4.50699H24.0529V4.66011H24.1841V4.92261H24.3154V5.05386H24.4466C24.4538 5.1477 24.4611 5.24155 24.4685 5.33824H24.5998V5.60074H24.731V5.88511H24.8623V6.14761H24.9935C25.0119 6.24277 25.0178 6.33224 25.0167 6.4298C25.0165 6.45495 25.0163 6.48011 25.0161 6.50614C25.0157 6.53458 25.0157 6.53458 25.0153 6.56367H25.1466V6.9793H25.2778V7.39492H25.4091C25.4163 7.61805 25.4235 7.84336 25.4309 8.07305H25.5403C25.5629 8.80367 25.5629 9.52992 25.5403 10.2605H25.4309C25.4237 10.4837 25.4165 10.709 25.4091 10.9387H25.2997C25.2925 11.1191 25.2853 11.2996 25.2778 11.4855H25.1466V11.9012H25.0153C25.0156 11.9294 25.0158 11.9576 25.0161 11.9865C25.0163 12.0232 25.0165 12.06 25.0167 12.0967C25.0169 12.1153 25.0171 12.1339 25.0172 12.1532C25.0173 12.1709 25.0174 12.1886 25.0175 12.2068C25.0176 12.2232 25.0177 12.2396 25.0178 12.2564C25.0153 12.2951 25.0153 12.2951 24.9935 12.317H24.8841C24.8769 12.4036 24.8697 12.4903 24.8623 12.5795H24.7529C24.7457 12.7095 24.7385 12.8398 24.731 12.9733H24.5998V13.1264H24.4685C24.4689 13.1544 24.4689 13.1544 24.4693 13.183C24.4696 13.2194 24.4696 13.2194 24.4699 13.2563C24.4701 13.2804 24.4704 13.3045 24.4707 13.3294C24.4685 13.3889 24.4685 13.3889 24.4466 13.4108H24.3372C24.33 13.4974 24.3228 13.584 24.3153 13.6733H24.1841V13.8045H24.0528V13.9576H23.9216C23.9144 14.0443 23.9072 14.1309 23.8997 14.2201H23.7685V14.3514H23.6372V14.4826H23.506V14.6358H23.3747V14.767H23.2435V14.8983C23.2002 14.9055 23.1568 14.9127 23.1122 14.9201C23.105 14.9635 23.0978 15.0068 23.0903 15.0514H22.9591V15.1826H22.8278V15.3139H22.6747V15.4451H22.5435V15.5764H22.4122V15.7076C22.3256 15.7149 22.239 15.7221 22.1497 15.7295V15.8608H21.9966V15.992H21.8653V16.1233C21.7787 16.1305 21.6921 16.1377 21.6028 16.1451C21.5956 16.1812 21.5884 16.2173 21.581 16.2545C21.4924 16.276 21.4095 16.2781 21.3185 16.2764V16.4076H21.056V16.5389H20.7716V16.6701C20.685 16.6774 20.5983 16.6846 20.5091 16.692C20.5019 16.7281 20.4947 16.7642 20.4872 16.8014C20.3921 16.8198 20.3026 16.8257 20.205 16.8246C20.1799 16.8244 20.1547 16.8242 20.1287 16.824C20.1097 16.8237 20.0906 16.8235 20.0712 16.8232V16.9545H19.6774V17.0857H19.1305V17.217C18.8133 17.2242 18.4962 17.2314 18.168 17.2388V17.3482H16.8118V17.2388C16.7882 17.2391 16.7645 17.2393 16.74 17.2396C16.4425 17.2417 16.1472 17.2306 15.8497 17.2169V17.0856H15.3028V16.9544H14.756V16.8231C14.7373 16.8234 14.7186 16.8236 14.6993 16.8239C14.663 16.8242 14.663 16.8242 14.626 16.8245C14.602 16.8247 14.5779 16.825 14.553 16.8252C14.4935 16.8231 14.4935 16.8231 14.4716 16.8012V16.6918C14.3417 16.6846 14.2113 16.6774 14.0778 16.6699V16.5387H13.7935V16.4074H13.531V16.2762C13.4443 16.269 13.3577 16.2617 13.2685 16.2543C13.2613 16.2182 13.254 16.1821 13.2466 16.1449C13.2033 16.1377 13.16 16.1305 13.1153 16.1231V15.9918H12.8528V15.8606H12.6997V15.7293C12.6131 15.7221 12.5265 15.7149 12.4372 15.7074V15.5762H12.306V15.4449H12.1528V15.3137H12.0216V15.1824H11.8903V15.0293H11.7591V14.8981H11.606V14.7668H11.4747V14.6356H11.3435V14.4824H11.2122C11.205 14.3958 11.1978 14.3092 11.1903 14.2199H11.0591V14.0887H10.9278V13.9356H10.7966V13.6731H10.6653C10.6581 13.5864 10.6509 13.4998 10.6435 13.4106H10.5341C10.5122 13.3887 10.5122 13.3887 10.5109 13.3217L10.5123 13.2574H10.381V12.9949H10.2498V12.7106H10.1185L10.0967 12.4481L9.98728 12.4262C9.95818 12.2956 9.96343 12.1659 9.9654 12.0324H9.83415V11.6168H9.7029V11.2231H9.57165L9.54978 10.5231H9.4404C9.41503 10.2737 9.41525 10.0265 9.41568 9.77493C9.41567 9.73031 9.41565 9.6859 9.41562 9.64128C9.41559 9.54831 9.41563 9.45556 9.41574 9.36346C9.41586 9.24512 9.41579 9.12721 9.41566 9.00909C9.41558 8.91721 9.41561 8.82556 9.41566 8.73346C9.41568 8.68993 9.41566 8.64618 9.41561 8.60265C9.4154 8.37296 9.41725 8.14765 9.44055 7.92015H9.54992L9.54915 7.87728C9.54712 7.66487 9.55939 7.4529 9.5719 7.2429H9.68128L9.70315 6.7179H9.8344V6.30228H9.96565C9.97287 6.20843 9.98009 6.11459 9.98753 6.0179H10.1188V5.73353H10.25V5.47103H10.3813V5.20853H10.5125V5.0554H10.6438C10.651 4.96878 10.6582 4.88215 10.6657 4.7929H10.7969V4.63978H10.9282V4.37728H11.0594V4.24603C11.1027 4.23881 11.146 4.23159 11.1907 4.22415L11.2125 4.0929H11.3438V3.96165H11.475V3.69915C11.5183 3.69193 11.5617 3.68471 11.6063 3.67728C11.6135 3.64118 11.6207 3.60509 11.6282 3.5679H11.7594V3.43665H11.8907V3.28353H12.0219V3.15228H12.175V3.02103C12.305 3.0102 12.305 3.0102 12.4375 2.99915V2.8679H12.5688V2.73665H12.7219V2.6054L12.9625 2.58353C12.9697 2.54743 12.977 2.51134 12.9844 2.47415H13.1157V2.3429C13.2456 2.33207 13.2456 2.33207 13.3782 2.32103V2.18978H13.6625V2.05853C13.7925 2.0477 13.7925 2.0477 13.925 2.03665V1.92728C14.0189 1.92006 14.1127 1.91284 14.2094 1.9054V1.77415H14.4938V1.6429H14.8875V1.51165H15.3032V1.3804C15.5285 1.36714 15.7538 1.35437 15.9813 1.35853V1.24915C16.116 1.22531 16.2482 1.22421 16.3838 1.22443L16.3844 1.22281ZM16.135 2.1875V2.31875C16.1186 2.31864 16.1022 2.31852 16.0851 2.3184C16.011 2.31795 15.937 2.31766 15.862 2.31738C15.8362 2.3172 15.8102 2.31702 15.7835 2.31683C15.759 2.31676 15.7343 2.31669 15.7089 2.31661C15.6861 2.3165 15.6634 2.31638 15.6398 2.31627C15.5881 2.31277 15.5881 2.31277 15.5652 2.34055C15.5643 2.37708 15.5642 2.41339 15.5652 2.44992C15.5229 2.44954 15.5229 2.44954 15.4798 2.44915C15.4431 2.44895 15.4063 2.44875 15.3696 2.44855C15.351 2.44837 15.3324 2.44819 15.3132 2.448C15.2955 2.44793 15.2777 2.44786 15.2596 2.44779C15.2432 2.44767 15.2268 2.44756 15.2099 2.44744C15.1708 2.44569 15.1708 2.44569 15.1493 2.47172V2.58109C15.0194 2.58831 14.889 2.59553 14.7556 2.60297V2.73422H14.4712V2.86547H14.2087V2.99672C14.19 2.99646 14.1713 2.99621 14.152 2.99595C14.128 2.99575 14.1037 2.99555 14.0788 2.99535C14.0427 2.99497 14.0427 2.99497 14.0057 2.99458C13.9479 2.98988 13.9479 2.98988 13.9243 3.01864V3.12802C13.7944 3.13885 13.7944 3.13885 13.6618 3.14989V3.28114H13.5087V3.41239C13.4916 3.41214 13.4746 3.41189 13.4568 3.41162C13.4348 3.41143 13.4127 3.41123 13.3897 3.41103C13.3676 3.41077 13.3455 3.41052 13.3227 3.41026C13.2694 3.40614 13.2694 3.40614 13.2462 3.43432C13.2453 3.47085 13.2453 3.50716 13.2462 3.54369H13.1149V3.69682H12.9618V3.82807H12.7212C12.714 3.87138 12.7067 3.91469 12.6993 3.95932C12.656 3.96654 12.6127 3.97376 12.5681 3.98119V4.11244H12.4368V4.24369H12.3056V4.37494H12.1743L12.1524 4.63744H12.0212V4.79057H11.8899V4.92182H11.7587C11.7515 5.00844 11.7442 5.09507 11.7368 5.18432H11.6056V5.33744H11.4743V5.59994H11.3431C11.3322 5.66491 11.3322 5.66491 11.3212 5.73119C11.2851 5.73841 11.249 5.74563 11.2118 5.75307C11.2046 5.83969 11.1974 5.92632 11.1899 6.01557H11.0806C11.0515 6.14616 11.0567 6.27588 11.0587 6.40932H10.9274V6.69369H10.7962C10.789 6.83085 10.7818 6.96713 10.7743 7.10932H10.6649C10.6407 7.22591 10.6404 7.33901 10.6418 7.45713C10.6418 7.47636 10.6419 7.49563 10.6421 7.51532C10.6423 7.56235 10.6427 7.6096 10.6431 7.65663H10.5337C10.5145 7.75529 10.5092 7.84848 10.5097 7.94976C10.5097 7.96463 10.5097 7.97951 10.5098 7.99482C10.5099 8.04185 10.5102 8.08888 10.5104 8.13591C10.5106 8.16807 10.5107 8.20001 10.5107 8.23216C10.511 8.31048 10.5114 8.38857 10.5118 8.46623H10.3806V10.26H10.5118V10.9381H10.6431C10.6428 10.9665 10.6426 10.995 10.6423 11.0245C10.6421 11.0624 10.6419 11.1 10.6417 11.1378C10.6414 11.1658 10.6414 11.1658 10.6411 11.1945C10.6408 11.294 10.6446 11.3872 10.665 11.4854H10.7744C10.7816 11.6226 10.7888 11.7589 10.7962 11.901H10.9275V12.1635H11.0587C11.0585 12.1822 11.0582 12.2009 11.058 12.2202C11.0578 12.2443 11.0576 12.2685 11.0574 12.2935C11.0571 12.3175 11.0569 12.3416 11.0566 12.3665C11.0519 12.4243 11.0519 12.4243 11.0807 12.4479H11.19C11.1973 12.5345 11.2045 12.6212 11.2119 12.7104C11.248 12.7176 11.2841 12.7248 11.3213 12.7323C11.3321 12.8513 11.3321 12.8513 11.3432 12.9729H11.4744V13.126H11.6057V13.2792H11.7369C11.7441 13.3658 11.7514 13.4524 11.7588 13.5417H11.89V13.6729H12.0213V13.8042H12.1525V13.9573H12.2838V14.0885H12.415V14.2198H12.5682V14.3729H12.6994V14.5042H12.8307V14.6354H12.9838V14.7667H13.115V14.8979C13.2017 14.9051 13.2883 14.9123 13.3775 14.9198V15.051H13.5307V15.1823H13.7932V15.3135H13.9463V15.4448C14.0329 15.452 14.1195 15.4592 14.2088 15.4667V15.5979H14.4713V15.7292H14.7557V15.8604H15.04V15.9917C15.17 15.9989 15.3004 16.0061 15.4338 16.0135C15.441 16.0496 15.4482 16.0857 15.4557 16.1229C15.5723 16.1472 15.6854 16.1474 15.8035 16.1461C15.8227 16.146 15.842 16.1459 15.8617 16.1458C15.9087 16.1455 15.9559 16.1452 16.003 16.1447V16.2541C16.0791 16.2714 16.1491 16.2786 16.2261 16.2784C16.2484 16.2784 16.2707 16.2784 16.2937 16.2784C16.3175 16.2783 16.3414 16.2782 16.3659 16.278C16.3904 16.278 16.4151 16.278 16.4405 16.2779C16.519 16.2778 16.5973 16.2776 16.6767 16.2773C16.7299 16.2772 16.7833 16.2771 16.8364 16.277C16.9668 16.2767 17.0967 16.2764 17.228 16.2759V16.4072H17.753V16.2759C17.7735 16.276 17.7735 16.276 17.7943 16.2761C17.9359 16.2765 18.0765 16.2769 18.2187 16.2771C18.2716 16.2772 18.3246 16.2774 18.3773 16.2776C18.4532 16.2778 18.5291 16.2779 18.6048 16.278C18.6286 16.2782 18.6525 16.2783 18.677 16.2784C18.6989 16.2784 18.7207 16.2784 18.7433 16.2784C18.7724 16.2785 18.7724 16.2785 18.8019 16.2785C18.8461 16.2808 18.8461 16.2808 18.8679 16.254C18.8688 16.2175 18.8689 16.1812 18.8679 16.1447C18.8946 16.1449 18.9213 16.1452 18.9487 16.1454C18.9841 16.1456 19.0198 16.1458 19.0552 16.146C19.0727 16.1462 19.0902 16.1464 19.1081 16.1466C19.2129 16.147 19.3116 16.1404 19.4144 16.1227V16.0134C19.5515 16.0061 19.6878 15.9989 19.83 15.9915V15.8602H20.2238V15.729C20.2518 15.7294 20.2518 15.7294 20.2804 15.7298C20.3045 15.73 20.3288 15.7302 20.3537 15.7304C20.3898 15.7307 20.3898 15.7307 20.4268 15.7311C20.4845 15.7358 20.4845 15.7358 20.5081 15.7071V15.5977C20.5948 15.5905 20.6814 15.5833 20.7706 15.5758V15.4664C20.8573 15.4592 20.9439 15.452 21.0331 15.4446V15.3133H21.1863V15.1821H21.4488V15.0508C21.47 15.0513 21.4912 15.0517 21.5131 15.0522C21.5774 15.0586 21.5774 15.0586 21.6019 15.029C21.6028 14.9852 21.6028 14.9415 21.6019 14.8977H21.7331V14.7665H21.9956V14.6352C22.0168 14.6357 22.0381 14.6361 22.0599 14.6366C22.1243 14.643 22.1243 14.643 22.1488 14.6134C22.1496 14.5769 22.1497 14.5406 22.1488 14.504C22.1663 14.5045 22.184 14.5049 22.2021 14.5054C22.2568 14.5105 22.2568 14.5105 22.28 14.4822C22.2809 14.4385 22.2809 14.3947 22.28 14.351H22.4113V14.2197H22.5644V14.0885H22.6956V13.9572H22.8269V13.8041H22.9581V13.6729H23.0894C23.0966 13.5862 23.1038 13.4996 23.1113 13.4104H23.2425V13.2572H23.3738V13.126H23.505V12.8635H23.6363C23.6435 12.7696 23.6507 12.6758 23.6581 12.5791H23.7894V12.3166H23.9206V12.0322H24.0519V11.6385H24.1831C24.1904 11.5013 24.1976 11.365 24.205 11.2229H24.3144C24.3387 11.1063 24.3389 10.9932 24.3376 10.875C24.3374 10.8462 24.3374 10.8462 24.3373 10.8169C24.337 10.7698 24.3366 10.7226 24.3362 10.6755C24.3538 10.676 24.3714 10.6764 24.3896 10.6769C24.4443 10.682 24.4443 10.682 24.4675 10.6537C24.4696 10.6185 24.4702 10.5833 24.4702 10.5481C24.4703 10.5251 24.4704 10.5023 24.4704 10.4787C24.4704 10.4533 24.4703 10.4282 24.4703 10.4019C24.4703 10.3755 24.4704 10.349 24.4704 10.3217C24.4705 10.2488 24.4705 10.1758 24.4704 10.1029C24.4703 10.0266 24.4704 9.95044 24.4704 9.87322C24.4705 9.74503 24.4704 9.61728 24.4703 9.48822C24.4702 9.34013 24.4702 9.19291 24.4703 9.04416C24.4704 8.91706 24.4705 8.79041 24.4704 8.66353C24.4704 8.58763 24.4704 8.51172 24.4704 8.43603C24.4705 8.35138 24.4704 8.2665 24.4703 8.18228C24.4703 8.15713 24.4704 8.13197 24.4704 8.10616C24.4704 8.08297 24.4703 8.06 24.4702 8.03616C24.4702 8.01612 24.4702 7.99613 24.4702 7.97535C24.4674 7.91825 24.4582 7.86553 24.4455 7.80997H24.3361C24.3365 7.76753 24.3365 7.76753 24.3369 7.72444C24.3371 7.68681 24.3373 7.64941 24.3375 7.61178C24.3377 7.59323 24.3378 7.5746 24.338 7.55556C24.3384 7.44816 24.3325 7.3471 24.3142 7.24056H24.2048C24.1976 7.11063 24.1904 6.98025 24.1829 6.84681H24.0517V6.43119H23.9204V6.14681H23.7892C23.782 6.06019 23.7748 5.97356 23.7673 5.88431C23.7312 5.8771 23.6951 5.86988 23.6579 5.86244C23.6507 5.78303 23.6435 5.70363 23.6361 5.62181H23.5048V5.46869H23.3736C23.3739 5.44069 23.3739 5.44069 23.3743 5.41203C23.3745 5.38797 23.3747 5.36369 23.3749 5.33875C23.3753 5.30266 23.3753 5.30266 23.3757 5.26569C23.3804 5.20794 23.3804 5.20794 23.3516 5.18431C23.3151 5.18343 23.2788 5.18338 23.2423 5.18431V5.05306H23.111C23.1038 4.96644 23.0966 4.87981 23.0891 4.79056H22.9579V4.65931H22.8266V4.50619H22.6954V4.37494H22.5423V4.24369H22.411V4.09056H22.2798V3.95931H22.1266V3.82806H21.8641V3.67494H21.7329V3.54369H21.6016C21.6021 3.5261 21.6025 3.50847 21.603 3.49031C21.6081 3.43563 21.6081 3.43563 21.5798 3.41244C21.5356 3.41086 21.4914 3.41061 21.4473 3.41107C21.4109 3.41137 21.4109 3.41137 21.374 3.41167L21.3173 3.41244V3.28119H21.1861V3.14994C21.0561 3.13911 21.0561 3.13911 20.9236 3.12806V3.01869C20.8989 2.98894 20.8989 2.98894 20.8348 2.9955C20.8136 2.99595 20.7923 2.9964 20.7704 2.99687V2.88749C20.6399 2.8584 20.5101 2.86365 20.3767 2.86562V2.73437H20.0923V2.60312C19.9985 2.5959 19.9046 2.58868 19.8079 2.58124V2.47187C19.6914 2.44759 19.5783 2.44737 19.4601 2.44868C19.4409 2.44878 19.4216 2.44888 19.4019 2.44898C19.3549 2.44924 19.3077 2.44963 19.2606 2.45005V2.3188H18.5825V2.18755H16.1325L16.135 2.1875Z" fill="#000002"/>
<path d="M17.1062 25.025H17.8937C17.909 25.1167 17.9182 25.1899 17.9182 25.2809C17.9183 25.3175 17.9183 25.3175 17.9183 25.3547C17.9183 25.3809 17.9182 25.4074 17.9181 25.4345C17.9181 25.4625 17.9181 25.4905 17.9181 25.5192C17.9181 25.5955 17.918 25.6721 17.9178 25.7488C17.9177 25.8289 17.9177 25.9087 17.9177 25.9895C17.9176 26.1408 17.9174 26.2913 17.9172 26.4423C17.9169 26.6147 17.9168 26.7879 17.9167 26.9585C17.9165 27.3129 17.9161 27.6673 17.9156 28.0217H18.0469V28.306H17.9156V28.4373H18.0469V29.531H17.9156V32.8123H26.9281C26.9353 32.7257 26.9426 32.639 26.95 32.5498H27.0594C27.0702 29.706 27.0702 29.706 27.0812 26.7967H27.1906V26.6654H27.0812V26.2498H27.2125V25.9873C27.2991 25.9801 27.3857 25.9728 27.475 25.9654V25.856H27.8906V25.9654H28.0219V26.1185H28.1531V31.7185H28.0437C28.0365 32.0795 28.0293 32.4404 28.0219 32.8123H27.8906V33.0748H27.7594C27.76 33.1065 27.76 33.1065 27.7607 33.1391C27.7594 33.206 27.7594 33.206 27.7375 33.2279C27.701 33.2288 27.6647 33.2288 27.6282 33.2279V33.3592H27.475V33.4904C27.3884 33.4976 27.3018 33.5048 27.2125 33.5123V33.6217C27.1692 33.6289 27.1259 33.6361 27.0813 33.6435C27.0741 33.6796 27.0669 33.7157 27.0594 33.7529C26.6525 33.775 26.2457 33.7778 25.8366 33.7776C25.7434 33.7776 25.6502 33.7776 25.5566 33.7777C25.3939 33.7778 25.2307 33.7778 25.0688 33.7777C24.826 33.7776 24.5854 33.7777 24.3425 33.7777C23.9094 33.7779 23.4785 33.7778 23.0454 33.7778C22.6669 33.7777 22.2885 33.7777 21.91 33.7777C21.8849 33.7777 21.8597 33.7777 21.8339 33.7777C21.7318 33.7778 21.6298 33.7778 21.5277 33.7778C20.5717 33.7778 19.6158 33.7778 18.662 33.7777C17.8133 33.7776 16.9645 33.7776 16.1245 33.7777C15.1686 33.7778 14.2149 33.7778 13.2589 33.7778C13.1572 33.7778 13.0553 33.7777 12.9527 33.7777C12.9275 33.7777 12.9026 33.7777 12.8768 33.7777C12.4983 33.7777 12.1199 33.7777 11.7415 33.7778C11.3105 33.7779 10.8818 33.7778 10.4508 33.7777C10.2102 33.7777 9.96958 33.7777 9.72896 33.7777C9.56818 33.7778 9.40739 33.7778 9.24552 33.7777C9.15408 33.7776 9.06242 33.7776 8.97208 33.7777C8.27646 33.7782 8.27646 33.7782 7.95052 33.753V33.6436C7.81336 33.6364 7.67708 33.6291 7.53489 33.6217V33.4905H7.40364V33.3592H7.27239C7.26517 33.2726 7.25796 33.186 7.25052 33.0967H7.11927V32.9436H6.98802L6.96614 32.3967H6.85677C6.83677 31.1192 6.83139 29.8373 6.83205 28.5686C6.83215 28.3695 6.83208 28.1705 6.83197 27.9714C6.83187 27.7758 6.83186 27.5798 6.83191 27.3851C6.83195 27.2699 6.83195 27.1555 6.83188 27.0395C6.83182 26.9325 6.83186 26.8256 6.83199 26.718C6.83202 26.679 6.83201 26.6401 6.83196 26.6011C6.83173 26.3968 6.83609 26.1965 6.85668 25.993C6.98662 25.9822 6.98662 25.9822 7.11918 25.9711V25.8618H7.66605V25.9711H7.7973C7.80452 28.093 7.81174 30.2149 7.81918 32.4024H7.92855C7.93577 32.5395 7.94299 32.6758 7.95043 32.818H15.8692V32.9493H16.2848V32.818H16.4161V32.9493H16.5692V32.818H16.9629V25.4243H17.0942C17.0939 25.4068 17.0937 25.3895 17.0934 25.3715C17.0931 25.3368 17.0931 25.3368 17.0928 25.3013C17.0926 25.2786 17.0923 25.2556 17.092 25.2322C17.0942 25.162 17.0942 25.162 17.1161 25.0307L17.1062 25.025Z" fill="#000002"/>
<path d="M17.0844 4.79063H17.8937V4.92188H18.4406V5.05313C18.5345 5.06034 18.6283 5.06756 18.725 5.075V5.20625H18.9875V5.3375H19.1406V5.46875H19.2719V5.6H19.4031C19.4103 5.64331 19.4176 5.68663 19.425 5.73125C19.4611 5.73847 19.4972 5.74569 19.5344 5.75313C19.5559 5.84172 19.558 5.92463 19.5562 6.01563H19.6875V6.16875H19.8187V6.43125H19.95C19.9951 7.01969 19.9817 7.61469 19.95 8.20313H19.8187V8.46563H19.6875V8.61875H19.5562V8.75H19.425C19.4178 8.83663 19.4106 8.92325 19.4031 9.0125C19.3165 9.01972 19.2299 9.02694 19.1406 9.03438V9.29688H18.8781V9.42813C18.8562 9.45 18.8562 9.45 18.8002 9.45131C18.7827 9.45086 18.765 9.45041 18.7469 9.44995C18.7475 9.47641 18.7475 9.47641 18.7482 9.50332C18.7469 9.55932 18.7469 9.55932 18.7251 9.5812C18.6813 9.58209 18.6376 9.58212 18.5938 9.5812V9.71245H18.4626V9.8437H18.3313C18.3318 9.86489 18.3322 9.88613 18.3327 9.90801C18.3313 9.97495 18.3313 9.97495 18.3095 9.99682H18.2001C18.1929 10.0834 18.1857 10.1701 18.1782 10.2593H18.047V10.5218H17.9157C17.9158 10.5377 17.916 10.5535 17.9161 10.5699C17.9165 10.6424 17.9168 10.7148 17.9171 10.7872C17.9173 10.8121 17.9175 10.837 17.9177 10.8629C17.9177 10.8871 17.9178 10.9114 17.9179 10.9364C17.918 10.9587 17.9181 10.9808 17.9182 11.0037C17.9157 11.0709 17.9063 11.1341 17.8939 11.2002C17.8578 11.2074 17.8217 11.2146 17.7846 11.222C17.7773 11.2654 17.7701 11.3087 17.7627 11.3533C17.6756 11.3539 17.5886 11.3543 17.5024 11.3547C17.4652 11.3549 17.4652 11.3549 17.4271 11.3552C17.4035 11.3553 17.3799 11.3554 17.3556 11.3554C17.3228 11.3556 17.3228 11.3556 17.2893 11.3558C17.2386 11.3533 17.2386 11.3533 17.2167 11.3315C17.2158 11.295 17.2158 11.2586 17.2167 11.2221C17.1902 11.2228 17.1902 11.2228 17.1633 11.2235C17.1073 11.2221 17.1073 11.2221 17.0854 11.2003C17.0832 11.1323 17.0824 11.0649 17.0825 10.9969C17.0825 10.9761 17.0825 10.9555 17.0825 10.9341C17.0824 10.8899 17.0825 10.8459 17.0826 10.8017C17.0827 10.735 17.0826 10.6685 17.0824 10.6018C17.0824 10.392 17.0828 10.184 17.1074 9.97617H17.2168C17.224 9.88955 17.2312 9.80292 17.2386 9.71367C17.2747 9.70645 17.3108 9.69923 17.348 9.6918C17.3552 9.60517 17.3624 9.51855 17.3699 9.4293H17.5011V9.29805H17.6324V9.1668C17.6757 9.15958 17.719 9.15236 17.7636 9.14492C17.7708 9.10883 17.7781 9.07273 17.7855 9.03555C17.8216 9.02833 17.8577 9.02111 17.8949 9.01367C17.9021 8.97036 17.9093 8.92705 17.9168 8.88242H18.048V8.75117H18.2011V8.61992C18.2805 8.6127 18.3599 8.60548 18.4418 8.59805C18.449 8.55473 18.4562 8.51142 18.4636 8.4668H18.5949V8.33555H18.7261C18.7333 8.24892 18.7406 8.1623 18.748 8.07305C18.7841 8.06583 18.8202 8.05861 18.8574 8.05117C18.8646 7.96455 18.8718 7.87792 18.8793 7.78867H19.0105V6.95742H18.8793C18.872 6.82748 18.8648 6.69711 18.8574 6.56367H18.7261V6.41055H18.5949V6.2793H18.4636V6.14805H18.3324V6.0168H18.048V5.88555H16.8011V6.0168H16.5386V6.16992H16.4074V6.30117H16.2761C16.2653 6.43111 16.2653 6.43111 16.2543 6.56367H16.123V6.82617H15.9918V7.11055H15.8605V7.39492H15.7293V7.65742H15.598C15.5908 7.74405 15.5836 7.83067 15.5761 7.91992H15.3136V7.78867H15.1824V7.65742H15.0511C15.0439 7.5708 15.0367 7.48417 15.0293 7.39492H14.9199V6.82617H15.0293C15.0401 6.63127 15.0401 6.63127 15.0511 6.43242C15.1054 6.42159 15.1054 6.42159 15.1605 6.41055C15.1677 6.32392 15.1749 6.2373 15.1824 6.14805H15.3136V5.88555H15.4449V5.7543C15.5098 5.74347 15.5098 5.74347 15.5761 5.73242C15.5833 5.68911 15.5906 5.6458 15.598 5.60117H15.7293V5.46992H15.8605V5.33867H15.9918V5.20742C16.1324 5.19659 16.1324 5.19659 16.2761 5.18555V5.0543H16.5386V4.92305H17.0855V4.7918L17.0844 4.79063Z" fill="#000002"/>
<path d="M17.6312 12.3156H17.7625V12.4469H17.9156C17.9162 12.5805 17.9166 12.7137 17.9168 12.8472C17.9169 12.8927 17.9171 12.9382 17.9173 12.9837C17.9175 13.0489 17.9177 13.1141 17.9178 13.1792C17.9179 13.1997 17.918 13.2202 17.9181 13.2412C17.9181 13.26 17.9181 13.2788 17.9181 13.2982C17.9182 13.3149 17.9182 13.3315 17.9183 13.3488C17.9156 13.3871 17.9156 13.3871 17.8938 13.4089C17.8572 13.4098 17.8209 13.4099 17.7844 13.4089C17.7848 13.4265 17.7853 13.4442 17.7857 13.4623C17.7844 13.5183 17.7844 13.5183 17.7626 13.5402C17.7252 13.5424 17.6877 13.5431 17.6501 13.5431C17.6272 13.5431 17.604 13.5432 17.5803 13.5432C17.5561 13.5431 17.5318 13.543 17.5068 13.5429C17.483 13.543 17.4592 13.5431 17.4347 13.5432C17.3999 13.5431 17.3999 13.5431 17.3644 13.5431C17.3433 13.5431 17.322 13.543 17.3003 13.543C17.2343 13.54 17.1713 13.5304 17.1063 13.5183C17.0845 13.41 17.0816 13.307 17.0822 13.1967C17.0823 13.179 17.0823 13.1611 17.0823 13.1429C17.0825 13.0865 17.0827 13.0303 17.083 12.9738C17.0831 12.9353 17.0832 12.8971 17.0833 12.8586C17.0836 12.7647 17.0839 12.6711 17.0844 12.5764H17.2156V12.4451C17.3528 12.4379 17.4891 12.4307 17.6313 12.4232V12.3139L17.6312 12.3156Z" fill="#000002"/>
</svg>
