<svg width="64" height="64" viewBox="0 0 64 64" fill="none" xmlns="http://www.w3.org/2000/svg">
<g clip-path="url(#clip0_218_435)">
<path d="M38.6212 14.3144C41.5804 16.1698 43.6555 19.3095 44.0332 22.9539C45.2741 23.5377 46.6283 23.8409 47.9996 23.8421C53.184 23.8421 57.3859 19.6401 57.3859 14.4565C57.3859 9.27216 53.184 5.07019 47.9996 5.07019C42.8647 5.07179 38.6995 9.19868 38.6212 14.3144ZM32.472 33.5327C37.6564 33.5327 41.8584 29.33 41.8584 24.1464C41.8584 18.9628 37.6556 14.7608 32.472 14.7608C27.2885 14.7608 23.0841 18.9636 23.0841 24.1472C23.0841 29.3308 27.2885 33.5327 32.472 33.5327ZM36.4536 34.1725H28.4889C21.8621 34.1725 16.4708 39.5645 16.4708 46.1914V55.9315L16.4956 56.0841L17.1665 56.2942C23.4906 58.2701 28.9849 58.9291 33.5072 58.9291C42.34 58.9291 47.4597 56.4108 47.7752 56.2502L48.4021 55.9331H48.4692V46.1914C48.4716 39.5645 43.0804 34.1725 36.4536 34.1725ZM51.9827 24.4826H44.0796C43.9993 27.5343 42.716 30.4305 40.5094 32.54C46.3998 34.2915 50.7096 39.7538 50.7096 46.2058V49.2073C58.5129 48.9213 63.0096 46.7097 63.3059 46.5612L63.9329 46.2433H64V36.4999C64 29.8739 58.6088 24.4826 51.9827 24.4826ZM16.002 23.8437C17.8382 23.8437 19.5466 23.3078 20.9939 22.3948C21.448 19.4576 23.0107 16.8061 25.3604 14.9861C25.37 14.8104 25.3867 14.6362 25.3867 14.4589C25.3867 9.27456 21.184 5.07259 16.002 5.07259C10.8168 5.07259 6.61565 9.27456 6.61565 14.4589C6.61565 19.6409 10.8168 23.8437 16.002 23.8437ZM24.4315 32.54C22.2372 30.4406 20.9558 27.5629 20.8637 24.5274C20.5706 24.5058 20.2806 24.4826 19.9819 24.4826H12.0181C5.39124 24.4826 0 29.8739 0 36.4999V46.2417L0.0247598 46.3918L0.69567 46.6035C5.76903 48.1873 10.2969 48.9173 14.2297 49.1474V46.2058C14.2313 39.7538 18.5395 34.2931 24.4315 32.54Z" fill="white"/>
</g>
<defs>
<clipPath id="clip0_218_435">
<rect width="64" height="64" fill="white"/>
</clipPath>
</defs>
</svg>
